<?xml version="1.0" encoding="utf-8"?>
<!-- Generator: Adobe Illustrator 25.2.3, SVG Export Plug-In . SVG Version: 6.00 Build 0)  -->
<svg version="1.1" xmlns="http://www.w3.org/2000/svg" xmlns:xlink="http://www.w3.org/1999/xlink" x="0px" y="0px"
	 viewBox="0 0 1300 56.78" style="enable-background:new 0 0 1300 56.78;" xml:space="preserve">
<style type="text/css">
	.st0{display:none;}
	.st1{display:inline;fill:#00D1E8;}
	.st2{fill:#FFFFFF;}
	.st3{opacity:0.2;fill:#C8C8C8;}
	.st4{display:none;opacity:0.2;fill:#C8C8C8;}
	.st5{fill:#E82133;}
</style>
<g id="Layer_6" class="st0">
	<rect y="-123.26" class="st1" width="1300" height="300"/>
</g>
<g id="Layer_1">
	<rect x="1298.97" y="28.71" class="st2" width="1.03" height="6.96"/>
</g>
<g id="Layer_2">
	<polygon class="st2" points="99.34,31.67 99.34,28.71 98.31,28.71 98.31,31.67 85.47,31.67 85.47,28.71 84.43,28.71 84.43,31.67 
		71.59,31.67 71.59,28.71 70.56,28.71 70.56,31.67 57.71,31.67 57.71,28.71 56.68,28.71 56.68,31.67 43.84,31.67 43.84,28.71 
		42.81,28.71 42.81,31.67 29.96,31.67 29.96,28.71 28.93,28.71 28.93,31.67 15.57,31.67 15.57,25.49 13.8,25.49 13.8,32.19 
		15.05,32.19 15.05,41.32 16.09,41.32 16.09,32.7 28.93,32.7 28.93,35.67 29.96,35.67 29.96,32.7 42.81,32.7 42.81,35.67 
		43.84,35.67 43.84,32.7 56.68,32.7 56.68,35.67 57.71,35.67 57.71,32.7 70.56,32.7 70.56,35.67 71.59,35.67 71.59,32.7 84.43,32.7 
		84.43,35.67 85.47,35.67 85.47,32.7 98.31,32.7 98.31,35.67 99.34,35.67 99.34,32.7 112.18,32.7 112.18,41.32 113.22,41.32 
		113.22,31.67 	"/>
	<polygon class="st2" points="198.24,31.67 198.24,28.71 197.21,28.71 197.21,31.67 184.36,31.67 184.36,28.71 183.33,28.71 
		183.33,31.67 170.49,31.67 170.49,28.71 169.45,28.71 169.45,31.67 156.61,31.67 156.61,28.71 155.58,28.71 155.58,31.67 
		142.74,31.67 142.74,28.71 141.7,28.71 141.7,31.67 128.86,31.67 128.86,28.71 127.83,28.71 127.83,31.67 114.47,31.67 
		114.47,25.49 112.7,25.49 112.7,32.19 113.95,32.19 113.95,41.32 114.99,41.32 114.99,32.7 127.83,32.7 127.83,35.67 128.86,35.67 
		128.86,32.7 141.7,32.7 141.7,35.67 142.74,35.67 142.74,32.7 155.58,32.7 155.58,35.67 156.61,35.67 156.61,32.7 169.45,32.7 
		169.45,35.67 170.49,35.67 170.49,32.7 183.33,32.7 183.33,35.67 184.36,35.67 184.36,32.7 197.21,32.7 197.21,35.67 198.24,35.67 
		198.24,32.7 211.08,32.7 211.08,41.32 212.12,41.32 212.12,31.67 	"/>
	<polygon class="st2" points="297.14,31.67 297.14,28.71 296.1,28.71 296.1,31.67 283.26,31.67 283.26,28.71 282.23,28.71 
		282.23,31.67 269.39,31.67 269.39,28.71 268.35,28.71 268.35,31.67 255.51,31.67 255.51,28.71 254.48,28.71 254.48,31.67 
		241.64,31.67 241.64,28.71 240.6,28.71 240.6,31.67 227.76,31.67 227.76,28.71 226.73,28.71 226.73,31.67 213.37,31.67 
		213.37,25.49 211.6,25.49 211.6,32.19 212.85,32.19 212.85,41.32 213.89,41.32 213.89,32.7 226.73,32.7 226.73,35.67 227.76,35.67 
		227.76,32.7 240.6,32.7 240.6,35.67 241.64,35.67 241.64,32.7 254.48,32.7 254.48,35.67 255.51,35.67 255.51,32.7 268.35,32.7 
		268.35,35.67 269.39,35.67 269.39,32.7 282.23,32.7 282.23,35.67 283.26,35.67 283.26,32.7 296.1,32.7 296.1,35.67 297.14,35.67 
		297.14,32.7 309.98,32.7 309.98,41.32 311.01,41.32 311.01,31.67 	"/>
	<polygon class="st2" points="494.94,31.67 494.94,28.71 493.9,28.71 493.9,31.67 481.06,31.67 481.06,28.71 480.03,28.71 
		480.03,31.67 467.18,31.67 467.18,28.71 466.15,28.71 466.15,31.67 453.31,31.67 453.31,28.71 452.27,28.71 452.27,31.67 
		439.43,31.67 439.43,28.71 438.4,28.71 438.4,31.67 425.56,31.67 425.56,28.71 424.52,28.71 424.52,31.67 411.17,31.67 
		411.17,25.49 409.4,25.49 409.4,32.19 410.65,32.19 410.65,41.32 411.68,41.32 411.68,32.7 424.52,32.7 424.52,35.67 425.56,35.67 
		425.56,32.7 438.4,32.7 438.4,35.67 439.43,35.67 439.43,32.7 452.27,32.7 452.27,35.67 453.31,35.67 453.31,32.7 466.15,32.7 
		466.15,35.67 467.18,35.67 467.18,32.7 480.03,32.7 480.03,35.67 481.06,35.67 481.06,32.7 493.9,32.7 493.9,35.67 494.94,35.67 
		494.94,32.7 507.78,32.7 507.78,41.32 508.81,41.32 508.81,31.67 	"/>
	<polygon class="st2" points="593.83,31.67 593.83,28.71 592.8,28.71 592.8,31.67 579.96,31.67 579.96,28.71 578.92,28.71 
		578.92,31.67 566.08,31.67 566.08,28.71 565.05,28.71 565.05,31.67 552.21,31.67 552.21,28.71 551.17,28.71 551.17,31.67 
		538.33,31.67 538.33,28.71 537.3,28.71 537.3,31.67 524.46,31.67 524.46,28.71 523.42,28.71 523.42,31.67 510.06,31.67 
		510.06,25.49 508.29,25.49 508.29,32.19 509.55,32.19 509.55,41.32 510.58,41.32 510.58,32.7 523.42,32.7 523.42,35.67 
		524.46,35.67 524.46,32.7 537.3,32.7 537.3,35.67 538.33,35.67 538.33,32.7 551.17,32.7 551.17,35.67 552.21,35.67 552.21,32.7 
		565.05,32.7 565.05,35.67 566.08,35.67 566.08,32.7 578.92,32.7 578.92,35.67 579.96,35.67 579.96,32.7 592.8,32.7 592.8,35.67 
		593.83,35.67 593.83,32.7 606.68,32.7 606.68,41.32 607.71,41.32 607.71,31.67 	"/>
	<polygon class="st2" points="692.73,31.67 692.73,28.71 691.7,28.71 691.7,31.67 678.86,31.67 678.86,28.71 677.82,28.71 
		677.82,31.67 664.98,31.67 664.98,28.71 663.95,28.71 663.95,31.67 651.11,31.67 651.11,28.71 650.07,28.71 650.07,31.67 
		637.23,31.67 637.23,28.71 636.2,28.71 636.2,31.67 623.36,31.67 623.36,28.71 622.32,28.71 622.32,31.67 608.96,31.67 
		608.96,25.49 607.19,25.49 607.19,32.19 608.45,32.19 608.45,41.32 609.48,41.32 609.48,32.7 622.32,32.7 622.32,35.67 
		623.36,35.67 623.36,32.7 636.2,32.7 636.2,35.67 637.23,35.67 637.23,32.7 650.07,32.7 650.07,35.67 651.11,35.67 651.11,32.7 
		663.95,32.7 663.95,35.67 664.98,35.67 664.98,32.7 677.82,32.7 677.82,35.67 678.86,35.67 678.86,32.7 691.7,32.7 691.7,35.67 
		692.73,35.67 692.73,32.7 705.57,32.7 705.57,41.32 706.61,41.32 706.61,31.67 	"/>
	<polygon class="st2" points="890.53,31.67 890.53,28.71 889.5,28.71 889.5,31.67 876.65,31.67 876.65,28.71 875.62,28.71 
		875.62,31.67 862.78,31.67 862.78,28.71 861.74,28.71 861.74,31.67 848.9,31.67 848.9,28.71 847.87,28.71 847.87,31.67 
		835.03,31.67 835.03,28.71 833.99,28.71 833.99,31.67 821.15,31.67 821.15,28.71 820.12,28.71 820.12,31.67 806.76,31.67 
		806.76,25.49 804.99,25.49 804.99,32.19 806.24,32.19 806.24,41.32 807.28,41.32 807.28,32.7 820.12,32.7 820.12,35.67 
		821.15,35.67 821.15,32.7 833.99,32.7 833.99,35.67 835.03,35.67 835.03,32.7 847.87,32.7 847.87,35.67 848.9,35.67 848.9,32.7 
		861.74,32.7 861.74,35.67 862.78,35.67 862.78,32.7 875.62,32.7 875.62,35.67 876.65,35.67 876.65,32.7 889.5,32.7 889.5,35.67 
		890.53,35.67 890.53,32.7 903.37,32.7 903.37,41.32 904.41,41.32 904.41,31.67 	"/>
	<polygon class="st2" points="791.99,31.67 791.99,13.11 790.22,13.11 790.22,31.67 777.76,31.67 777.76,28.71 776.72,28.71 
		776.72,31.67 763.88,31.67 763.88,28.71 762.85,28.71 762.85,31.67 750.01,31.67 750.01,28.71 748.97,28.71 748.97,31.67 
		736.13,31.67 736.13,28.71 735.09,28.71 735.09,31.67 722.25,31.67 722.25,28.71 721.22,28.71 721.22,31.67 707.86,31.67 
		707.86,25.49 706.09,25.49 706.09,32.19 707.34,32.19 707.34,41.32 708.38,41.32 708.38,32.7 721.22,32.7 721.22,35.67 
		722.25,35.67 722.25,32.7 735.09,32.7 735.09,35.67 736.13,35.67 736.13,32.7 748.97,32.7 748.97,35.67 750.01,35.67 750.01,32.7 
		762.85,32.7 762.85,35.67 763.88,35.67 763.88,32.7 776.72,32.7 776.72,35.67 777.76,35.67 777.76,32.7 790.6,32.7 790.6,35.67 
		791.63,35.67 791.63,32.7 804.47,32.7 804.47,41.32 805.51,41.32 805.51,31.67 	"/>
	<polygon class="st2" points="396.04,31.67 396.04,28.71 395,28.71 395,31.67 382.16,31.67 382.16,28.71 381.13,28.71 381.13,31.67 
		368.29,31.67 368.29,28.71 367.25,28.71 367.25,31.67 355.28,31.67 355.28,13.11 353.51,13.11 353.51,28.71 353.38,28.71 
		353.38,31.67 340.53,31.67 340.53,28.71 339.5,28.71 339.5,31.67 326.66,31.67 326.66,28.71 325.63,28.71 325.63,31.67 
		312.27,31.67 312.27,25.49 310.5,25.49 310.5,32.19 311.75,32.19 311.75,41.32 312.78,41.32 312.78,32.7 325.63,32.7 325.63,35.67 
		326.66,35.67 326.66,32.7 339.5,32.7 339.5,35.67 340.53,35.67 340.53,32.7 353.38,32.7 353.38,35.67 354.41,35.67 354.41,32.7 
		367.25,32.7 367.25,35.67 368.29,35.67 368.29,32.7 381.13,32.7 381.13,35.67 382.16,35.67 382.16,32.7 395,32.7 395,35.67 
		396.04,35.67 396.04,32.7 408.88,32.7 408.88,41.32 409.91,41.32 409.91,31.67 	"/>
	<polygon class="st2" points="989.43,31.67 989.43,28.71 988.39,28.71 988.39,31.67 975.55,31.67 975.55,28.71 974.52,28.71 
		974.52,31.67 961.68,31.67 961.68,28.71 960.64,28.71 960.64,31.67 947.8,31.67 947.8,28.71 946.77,28.71 946.77,31.67 
		933.93,31.67 933.93,28.71 932.89,28.71 932.89,31.67 920.05,31.67 920.05,28.71 919.02,28.71 919.02,31.67 905.66,31.67 
		905.66,25.49 903.89,25.49 903.89,32.19 905.14,32.19 905.14,41.32 906.18,41.32 906.18,32.7 919.02,32.7 919.02,35.67 
		920.05,35.67 920.05,32.7 932.89,32.7 932.89,35.67 933.93,35.67 933.93,32.7 946.77,32.7 946.77,35.67 947.8,35.67 947.8,32.7 
		960.64,32.7 960.64,35.67 961.68,35.67 961.68,32.7 974.52,32.7 974.52,35.67 975.55,35.67 975.55,32.7 988.39,32.7 988.39,35.67 
		989.43,35.67 989.43,32.7 1002.27,32.7 1002.27,41.32 1003.3,41.32 1003.3,31.67 	"/>
	<polygon class="st2" points="1088.33,31.67 1088.33,28.71 1087.29,28.71 1087.29,31.67 1074.45,31.67 1074.45,28.71 1073.42,28.71 
		1073.42,31.67 1060.58,31.67 1060.58,28.71 1059.54,28.71 1059.54,31.67 1046.7,31.67 1046.7,28.71 1045.67,28.71 1045.67,31.67 
		1032.82,31.67 1032.82,28.71 1031.79,28.71 1031.79,31.67 1018.95,31.67 1018.95,28.71 1017.91,28.71 1017.91,31.67 1004.56,31.67 
		1004.56,25.49 1002.79,25.49 1002.79,32.19 1004.04,32.19 1004.04,41.32 1005.07,41.32 1005.07,32.7 1017.91,32.7 1017.91,35.67 
		1018.95,35.67 1018.95,32.7 1031.79,32.7 1031.79,35.67 1032.82,35.67 1032.82,32.7 1045.67,32.7 1045.67,35.67 1046.7,35.67 
		1046.7,32.7 1059.54,32.7 1059.54,35.67 1060.58,35.67 1060.58,32.7 1073.42,32.7 1073.42,35.67 1074.45,35.67 1074.45,32.7 
		1087.29,32.7 1087.29,35.67 1088.33,35.67 1088.33,32.7 1101.17,32.7 1101.17,41.32 1102.2,41.32 1102.2,31.67 	"/>
	<polygon class="st2" points="1187.23,31.67 1187.23,28.71 1186.19,28.71 1186.19,31.67 1173.35,31.67 1173.35,28.71 1172.31,28.71 
		1172.31,31.67 1159.47,31.67 1159.47,28.71 1158.44,28.71 1158.44,31.67 1145.6,31.67 1145.6,28.71 1144.56,28.71 1144.56,31.67 
		1131.72,31.67 1131.72,28.71 1130.69,28.71 1130.69,31.67 1117.85,31.67 1117.85,28.71 1116.81,28.71 1116.81,31.67 1103.46,31.67 
		1103.46,25.49 1101.68,25.49 1101.68,32.19 1102.94,32.19 1102.94,41.32 1103.97,41.32 1103.97,32.7 1116.81,32.7 1116.81,35.67 
		1117.85,35.67 1117.85,32.7 1130.69,32.7 1130.69,35.67 1131.72,35.67 1131.72,32.7 1144.56,32.7 1144.56,35.67 1145.6,35.67 
		1145.6,32.7 1158.44,32.7 1158.44,35.67 1159.47,35.67 1159.47,32.7 1172.31,32.7 1172.31,35.67 1173.35,35.67 1173.35,32.7 
		1186.19,32.7 1186.19,35.67 1187.23,35.67 1187.23,32.7 1200.07,32.7 1200.07,41.32 1201.1,41.32 1201.1,31.67 	"/>
	<polygon class="st2" points="1286.13,31.67 1286.13,28.71 1285.09,28.71 1285.09,31.67 1272.25,31.67 1272.25,28.71 1271.21,28.71 
		1271.21,31.67 1258.37,31.67 1258.37,28.71 1257.34,28.71 1257.34,31.67 1244.5,31.67 1244.5,28.71 1243.46,28.71 1243.46,31.67 
		1230.97,31.67 1230.97,13.11 1229.19,13.11 1229.19,31.67 1216.75,31.67 1216.75,28.71 1215.71,28.71 1215.71,31.67 1202.35,31.67 
		1202.35,25.49 1200.58,25.49 1200.58,32.19 1201.84,32.19 1201.84,41.32 1202.87,41.32 1202.87,32.7 1215.71,32.7 1215.71,35.67 
		1216.75,35.67 1216.75,32.7 1229.59,32.7 1229.59,35.67 1230.62,35.67 1230.62,32.7 1243.46,32.7 1243.46,35.67 1244.5,35.67 
		1244.5,32.7 1257.34,32.7 1257.34,35.67 1258.37,35.67 1258.37,32.7 1271.21,32.7 1271.21,35.67 1272.25,35.67 1272.25,32.7 
		1285.09,32.7 1285.09,35.67 1286.13,35.67 1286.13,32.7 1298.97,32.7 1298.97,41.32 1300,41.32 1300,31.67 	"/>
</g>
<g id="Layer_3">
	<rect id="_x30_6152020_x5F_AM" x="129.42" y="33.27" class="st3" width="11.72" height="11.76"/>
	<rect id="_x30_6142020_x5F_AM" x="115.57" y="33.27" class="st3" width="11.72" height="11.76"/>
	<rect id="_x30_6132020_x5F_AM" x="99.91" y="33.27" class="st3" width="11.72" height="11.76"/>
	<rect id="_x30_6132020_x5F_PM" x="99.91" y="45.02" class="st3" width="11.72" height="11.76"/>
	<rect id="_x30_6122020_x5F_AM" x="86.03" y="33.27" class="st3" width="11.72" height="11.76"/>
	<rect id="_x30_6122020_x5F_PM" x="86.03" y="45.02" class="st3" width="11.72" height="11.76"/>
	<rect id="_x30_6112020_x5F_AM" x="72.14" y="33.27" class="st3" width="11.72" height="11.76"/>
	<rect id="_x30_6112020_x5F_PM" x="72.14" y="45.02" class="st3" width="11.72" height="11.76"/>
	<rect id="_x30_6102020_x5F_AM" x="58.25" y="33.27" class="st3" width="11.72" height="11.76"/>
	<rect id="_x30_6102020_x5F_PM" x="58.25" y="45.02" class="st3" width="11.72" height="11.76"/>
	<rect id="_x30_6092020_x5F_AM" x="44.37" y="33.27" class="st3" width="11.72" height="11.76"/>
	<rect id="_x30_6092020_x5F_PM" x="44.37" y="45.02" class="st3" width="11.72" height="11.76"/>
	<rect id="_x30_6082020_x5F_AM" x="30.48" y="33.27" class="st3" width="11.72" height="11.76"/>
	<rect id="_x30_6082020_x5F_PM" x="30.48" y="45.02" class="st3" width="11.72" height="11.76"/>
	<rect id="_x30_6072020_x5F_AM" x="16.59" y="33.27" class="st3" width="11.72" height="11.76"/>
	<rect id="_x30_6072020_x5F_PM" x="16.59" y="45.02" class="st3" width="11.72" height="11.76"/>
	<rect id="_x30_6162020_x5F_AM" x="143.3" y="33.27" class="st3" width="11.72" height="11.76"/>
	<rect id="_x30_6172020_x5F_AM" x="157.17" y="33.27" class="st3" width="11.72" height="11.76"/>
	<rect id="_x30_6182020_x5F_AM" x="171.05" y="33.27" class="st3" width="11.72" height="11.76"/>
	<rect id="_x30_6192020_x5F_AM" x="184.92" y="33.27" class="st3" width="11.72" height="11.76"/>
	<rect id="_x30_6202020_x5F_AM" x="198.8" y="33.27" class="st3" width="11.72" height="11.76"/>
	<rect id="_x30_6152020_x5F_PM" x="129.42" y="45.02" class="st3" width="11.72" height="11.76"/>
	<rect id="_x30_6142020_x5F_PM" x="115.57" y="45.02" class="st3" width="11.72" height="11.76"/>
	<rect id="_x30_6162020_x5F_PM" x="143.3" y="45.02" class="st3" width="11.72" height="11.76"/>
	<rect id="_x30_6172020_x5F_PM" x="157.17" y="45.02" class="st3" width="11.72" height="11.76"/>
	<rect id="_x30_6182020_x5F_PM" x="171.05" y="45.02" class="st3" width="11.72" height="11.76"/>
	<rect id="_x30_6192020_x5F_PM" x="184.92" y="45.02" class="st3" width="11.72" height="11.76"/>
	<rect id="_x30_6202020_x5F_PM" x="198.8" y="45.02" class="st3" width="11.72" height="11.76"/>
	<rect id="_x30_6212020_x5F_AM" x="214.44" y="33.27" class="st3" width="11.72" height="11.76"/>
	<rect id="_x30_6222020_x5F_AM" x="228.32" y="33.27" class="st3" width="11.72" height="11.76"/>
	<rect id="_x30_6232020_x5F_AM" x="242.2" y="33.27" class="st3" width="11.72" height="11.76"/>
	<rect id="_x30_6242020_x5F_AM" x="256.07" y="33.27" class="st3" width="11.72" height="11.76"/>
	<rect id="_x30_6252020_x5F_AM" x="269.95" y="33.27" class="st3" width="11.72" height="11.76"/>
	<rect id="_x30_6262020_x5F_AM" x="283.82" y="33.27" class="st3" width="11.72" height="11.76"/>
	<rect id="_x30_6272020_x5F_AM" x="297.69" y="33.27" class="st3" width="11.72" height="11.76"/>
	<rect id="_x30_6212020_x5F_PM" x="214.44" y="45.02" class="st3" width="11.72" height="11.76"/>
	<rect id="_x30_6222020_x5F_PM" x="228.32" y="45.02" class="st3" width="11.72" height="11.76"/>
	<rect id="_x30_6232020_x5F_PM" x="242.2" y="45.02" class="st3" width="11.72" height="11.76"/>
	<rect id="_x30_6242020_x5F_PM" x="256.07" y="45.02" class="st3" width="11.72" height="11.76"/>
	<rect id="_x30_6252020_x5F_PM" x="269.95" y="45.02" class="st3" width="11.72" height="11.76"/>
	<rect id="_x30_6262020_x5F_PM" x="283.82" y="45.02" class="st3" width="11.72" height="11.76"/>
	<rect id="_x30_6272020_x5F_PM" x="297.69" y="45.02" class="st3" width="11.72" height="11.76"/>
	<rect id="_x30_6282020_x5F_AM" x="313.34" y="33.27" class="st3" width="11.72" height="11.76"/>
	<rect id="_x30_6292020_x5F_AM" x="327.22" y="33.27" class="st3" width="11.72" height="11.76"/>
	<rect id="_x30_6302020_x5F_AM" x="341.09" y="33.27" class="st3" width="11.72" height="11.76"/>
	<rect id="_x30_7012020_x5F_AM" x="354.97" y="33.27" class="st3" width="11.72" height="11.76"/>
	<rect id="_x30_7022020_x5F_AM" x="368.85" y="33.27" class="st3" width="11.72" height="11.76"/>
	<rect id="_x30_7032020_x5F_AM" x="382.72" y="33.27" class="st3" width="11.72" height="11.76"/>
	<rect id="_x30_7042020_x5F_AM" x="396.6" y="33.27" class="st3" width="11.72" height="11.76"/>
	<rect id="_x30_6282020_x5F_PM" x="313.34" y="45.02" class="st3" width="11.72" height="11.76"/>
	<rect id="_x30_6292020_x5F_PM" x="327.22" y="45.02" class="st3" width="11.72" height="11.76"/>
	<rect id="_x30_6302020_x5F_PM" x="341.09" y="45.02" class="st3" width="11.72" height="11.76"/>
	<rect id="_x30_7012020_x5F_PM" x="354.97" y="45.02" class="st3" width="11.72" height="11.76"/>
	<rect id="_x30_7022020_x5F_PM" x="368.85" y="45.02" class="st3" width="11.72" height="11.76"/>
	<rect id="_x30_7032020_x5F_PM" x="382.72" y="45.02" class="st3" width="11.72" height="11.76"/>
	<rect id="_x30_7042020_x5F_PM" x="396.6" y="45.02" class="st3" width="11.72" height="11.76"/>
	<rect id="_x30_7132020_x5F_AM" x="525.02" y="33.27" class="st3" width="11.72" height="11.76"/>
	<rect id="_x30_7122020_x5F_AM" x="511.1" y="33.27" class="st3" width="11.72" height="11.76"/>
	<rect id="_x30_7112020_x5F_AM" x="495.49" y="33.27" class="st3" width="11.72" height="11.76"/>
	<rect id="_x30_7102020_x5F_AM" x="481.62" y="33.27" class="st3" width="11.72" height="11.76"/>
	<rect id="_x30_7092020_x5F_AM" x="467.74" y="33.27" class="st3" width="11.72" height="11.76"/>
	<rect id="_x30_7082020_x5F_AM" x="453.87" y="33.27" class="st3" width="11.72" height="11.76"/>
	<rect id="_x30_7072020_x5F_AM" x="439.99" y="33.27" class="st3" width="11.72" height="11.76"/>
	<rect id="_x30_7062020_x5F_AM" x="426.12" y="33.27" class="st3" width="11.72" height="11.76"/>
	<rect id="_x30_7052020_x5F_AM" x="412.24" y="33.27" class="st3" width="11.72" height="11.76"/>
	<rect id="_x30_7112020_x5F_PM" x="495.49" y="45.02" class="st3" width="11.72" height="11.76"/>
	<rect id="_x30_7102020_x5F_PM" x="481.62" y="45.02" class="st3" width="11.72" height="11.76"/>
	<rect id="_x30_7092020_x5F_PM" x="467.74" y="45.02" class="st3" width="11.72" height="11.76"/>
	<rect id="_x30_7082020_x5F_PM" x="453.87" y="45.02" class="st3" width="11.72" height="11.76"/>
	<rect id="_x30_7072020_x5F_PM" x="439.99" y="45.02" class="st3" width="11.72" height="11.76"/>
	<rect id="_x30_7062020_x5F_PM" x="426.12" y="45.02" class="st3" width="11.72" height="11.76"/>
	<rect id="_x30_7052020_x5F_PM" x="412.24" y="45.02" class="st3" width="11.72" height="11.76"/>
	<rect id="_x30_7142020_x5F_AM" x="538.89" y="33.27" class="st3" width="11.72" height="11.76"/>
	<rect id="_x30_7152020_x5F_AM" x="552.77" y="33.27" class="st3" width="11.72" height="11.76"/>
	<rect id="_x30_7162020_x5F_AM" x="566.64" y="33.27" class="st3" width="11.72" height="11.76"/>
	<rect id="_x30_7172020_x5F_AM" x="580.52" y="33.27" class="st3" width="11.72" height="11.76"/>
	<rect id="_x30_7182020_x5F_AM" x="594.39" y="33.27" class="st3" width="11.72" height="11.76"/>
	<rect id="_x30_7132020_x5F_PM" x="525.02" y="45.02" class="st3" width="11.72" height="11.76"/>
	<rect id="_x30_7122020_x5F_PM" x="511.1" y="45.02" class="st3" width="11.72" height="11.76"/>
	<rect id="_x30_7142020_x5F_PM" x="538.89" y="45.02" class="st3" width="11.72" height="11.76"/>
	<rect id="_x30_7152020_x5F_PM" x="552.77" y="45.02" class="st3" width="11.72" height="11.76"/>
	<rect id="_x30_7162020_x5F_PM" x="566.64" y="45.02" class="st3" width="11.72" height="11.76"/>
	<rect id="_x30_7172020_x5F_PM" x="580.52" y="45.02" class="st3" width="11.72" height="11.76"/>
	<rect id="_x30_7182020_x5F_PM" x="594.39" y="45.02" class="st3" width="11.72" height="11.76"/>
	<rect id="_x30_7192020_x5F_AM" x="610.04" y="33.27" class="st3" width="11.72" height="11.76"/>
	<rect id="_x30_7202020_x5F_AM" x="623.91" y="33.27" class="st3" width="11.72" height="11.76"/>
	<rect id="_x30_7212020_x5F_AM" x="637.79" y="33.27" class="st3" width="11.72" height="11.76"/>
	<rect id="_x30_7222020_x5F_AM" x="651.67" y="33.27" class="st3" width="11.72" height="11.76"/>
	<rect id="_x30_7232020_x5F_AM" x="665.54" y="33.27" class="st3" width="11.72" height="11.76"/>
	<rect id="_x30_7242020_x5F_AM" x="679.42" y="33.27" class="st3" width="11.72" height="11.76"/>
	<rect id="_x30_7252020_x5F_AM" x="693.29" y="33.27" class="st3" width="11.72" height="11.76"/>
	<rect id="_x30_7192020_x5F_PM" x="610.04" y="45.02" class="st3" width="11.72" height="11.76"/>
	<rect id="_x30_7202020_x5F_PM" x="623.91" y="45.02" class="st3" width="11.72" height="11.76"/>
	<rect id="_x30_7212020_x5F_PM" x="637.79" y="45.02" class="st3" width="11.72" height="11.76"/>
	<rect id="_x30_7222020_x5F_PM" x="651.67" y="45.02" class="st3" width="11.72" height="11.76"/>
	<rect id="_x30_7232020_x5F_PM" x="665.54" y="45.02" class="st3" width="11.72" height="11.76"/>
	<rect id="_x30_7242020_x5F_PM" x="679.42" y="45.02" class="st3" width="11.72" height="11.76"/>
	<rect id="_x30_7252020_x5F_PM" x="693.29" y="45.02" class="st3" width="11.72" height="11.76"/>
	<rect id="_x30_7262020_x5F_AM" x="708.99" y="33.27" class="st3" width="11.72" height="11.76"/>
	<rect id="_x30_7272020_x5F_AM" x="722.81" y="33.27" class="st3" width="11.72" height="11.76"/>
	<rect id="_x30_7282020_x5F_AM" x="736.64" y="33.27" class="st3" width="11.72" height="11.76"/>
	<rect id="_x30_7292020_x5F_AM" x="750.47" y="33.27" class="st3" width="11.72" height="11.76"/>
	<rect id="_x30_7302020_x5F_AM" x="764.3" y="33.27" class="st3" width="11.72" height="11.76"/>
	<rect id="_x30_7312020_x5F_AM" x="778.12" y="33.27" class="st3" width="11.72" height="11.76"/>
	<rect id="_x30_7262020_x5F_PM" x="708.99" y="45.02" class="st3" width="11.72" height="11.76"/>
	<rect id="_x30_7272020_x5F_PM" x="722.81" y="45.02" class="st3" width="11.72" height="11.76"/>
	<rect id="_x30_7282020_x5F_PM" x="736.64" y="45.02" class="st3" width="11.72" height="11.76"/>
	<rect id="_x30_7292020_x5F_PM" x="750.47" y="45.02" class="st3" width="11.72" height="11.76"/>
	<rect id="_x30_7302020_x5F_PM" x="764.3" y="45.02" class="st3" width="11.72" height="11.76"/>
	<rect id="_x30_7312020_x5F_PM" x="778.12" y="45.02" class="st3" width="11.72" height="11.76"/>
	<rect id="_x30_8012020_x5F_AM" x="792.34" y="33.27" class="st3" width="11.72" height="11.76"/>
	<rect id="_x30_8102020_x5F_AM" x="920.61" y="33.27" class="st3" width="11.72" height="11.76"/>
	<rect id="_x30_8092020_x5F_AM" x="906.7" y="33.27" class="st3" width="11.72" height="11.76"/>
	<rect id="_x30_8082020_x5F_AM" x="891.09" y="33.27" class="st3" width="11.72" height="11.76"/>
	<rect id="_x30_8072020_x5F_AM" x="877.21" y="33.27" class="st3" width="11.72" height="11.76"/>
	<rect id="_x30_8062020_x5F_AM" x="863.34" y="33.27" class="st3" width="11.72" height="11.76"/>
	<rect id="_x30_8052020_x5F_AM" x="849.46" y="33.27" class="st3" width="11.72" height="11.76"/>
	<rect id="_x30_8042020_x5F_AM" x="835.59" y="33.27" class="st3" width="11.72" height="11.76"/>
	<rect id="_x30_8032020_x5F_AM" x="821.71" y="33.27" class="st3" width="11.72" height="11.76"/>
	<rect id="_x30_8022020_x5F_AM" x="807.84" y="33.27" class="st3" width="11.72" height="11.76"/>
	<rect id="_x30_8012020_x5F_PM" x="792.34" y="45.02" class="st3" width="11.72" height="11.76"/>
	<rect id="_x30_8082020_x5F_PM" x="891.09" y="45.02" class="st3" width="11.72" height="11.76"/>
	<rect id="_x30_8072020_x5F_PM" x="877.21" y="45.02" class="st3" width="11.72" height="11.76"/>
	<rect id="_x30_8062020_x5F_PM" x="863.34" y="45.02" class="st3" width="11.72" height="11.76"/>
	<rect id="_x30_8052020_x5F_PM" x="849.46" y="45.02" class="st3" width="11.72" height="11.76"/>
	<rect id="_x30_8042020_x5F_PM" x="835.59" y="45.02" class="st3" width="11.72" height="11.76"/>
	<rect id="_x30_8032020_x5F_PM" x="821.71" y="45.02" class="st3" width="11.72" height="11.76"/>
	<rect id="_x30_8022020_x5F_PM" x="807.84" y="45.02" class="st3" width="11.72" height="11.76"/>
	<rect id="_x30_8112020_x5F_AM" x="934.49" y="33.27" class="st3" width="11.72" height="11.76"/>
	<rect id="_x30_8122020_x5F_AM" x="948.36" y="33.27" class="st3" width="11.72" height="11.76"/>
	<rect id="_x30_8132020_x5F_AM" x="962.24" y="33.27" class="st3" width="11.72" height="11.76"/>
	<rect id="_x30_8142020_x5F_AM" x="976.11" y="33.27" class="st3" width="11.72" height="11.76"/>
	<rect id="_x30_8152020_x5F_AM" x="989.99" y="33.27" class="st3" width="11.72" height="11.76"/>
	<rect id="_x30_8102020_x5F_PM" x="920.61" y="45.02" class="st3" width="11.72" height="11.76"/>
	<rect id="_x30_8092020_x5F_PM" x="906.7" y="45.02" class="st3" width="11.72" height="11.76"/>
	<rect id="_x30_8112020_x5F_PM" x="934.49" y="45.02" class="st3" width="11.72" height="11.76"/>
	<rect id="_x30_8122020_x5F_PM" x="948.36" y="45.02" class="st3" width="11.72" height="11.76"/>
	<rect id="_x30_8132020_x5F_PM" x="962.24" y="45.02" class="st3" width="11.72" height="11.76"/>
	<rect id="_x30_8142020_x5F_PM" x="976.11" y="45.02" class="st3" width="11.72" height="11.76"/>
	<rect id="_x30_8152020_x5F_PM" x="989.99" y="45.02" class="st3" width="11.72" height="11.76"/>
	<rect id="_x30_8162020_x5F_AM" x="1005.63" y="33.27" class="st3" width="11.72" height="11.76"/>
	<rect id="_x30_8172020_x5F_AM" x="1019.51" y="33.27" class="st3" width="11.72" height="11.76"/>
	<rect id="_x30_8182020_x5F_AM" x="1033.38" y="33.27" class="st3" width="11.72" height="11.76"/>
	<rect id="_x30_8192020_x5F_AM" x="1047.26" y="33.27" class="st3" width="11.72" height="11.76"/>
	<rect id="_x30_8202020_x5F_AM" x="1061.13" y="33.27" class="st3" width="11.72" height="11.76"/>
	<rect id="_x30_8212020_x5F_AM" x="1075.01" y="33.27" class="st3" width="11.72" height="11.76"/>
	<rect id="_x30_8222020_x5F_AM" x="1088.89" y="33.27" class="st3" width="11.72" height="11.76"/>
	<rect id="_x30_8162020_x5F_PM" x="1005.63" y="45.02" class="st3" width="11.72" height="11.76"/>
	<rect id="_x30_8172020_x5F_PM" x="1019.51" y="45.02" class="st3" width="11.72" height="11.76"/>
	<rect id="_x30_8182020_x5F_PM" x="1033.38" y="45.02" class="st3" width="11.72" height="11.76"/>
	<rect id="_x30_8192020_x5F_PM" x="1047.26" y="45.02" class="st3" width="11.72" height="11.76"/>
	<rect id="_x30_8202020_x5F_PM" x="1061.13" y="45.02" class="st3" width="11.72" height="11.76"/>
	<rect id="_x30_8212020_x5F_PM" x="1075.01" y="45.02" class="st3" width="11.72" height="11.76"/>
	<rect id="_x30_8222020_x5F_PM" x="1088.89" y="45.02" class="st3" width="11.72" height="11.76"/>
	<rect id="_x30_8232020_x5F_AM" x="1104.58" y="33.27" class="st3" width="11.72" height="11.76"/>
	<rect id="_x30_8242020_x5F_AM" x="1118.41" y="33.27" class="st3" width="11.72" height="11.76"/>
	<rect id="_x30_8252020_x5F_AM" x="1132.23" y="33.27" class="st3" width="11.72" height="11.76"/>
	<rect id="_x30_8262020_x5F_AM" x="1146.06" y="33.27" class="st3" width="11.72" height="11.76"/>
	<rect id="_x30_8272020_x5F_AM" x="1159.89" y="33.27" class="st3" width="11.72" height="11.76"/>
	<rect id="_x30_8282020_x5F_AM" x="1173.72" y="33.27" class="st3" width="11.72" height="11.76"/>
	<rect id="_x30_8292020_x5F_AM" x="1187.93" y="33.27" class="st3" width="11.72" height="11.76"/>
	<rect id="_x30_8232020_x5F_PM" x="1104.58" y="45.02" class="st3" width="11.72" height="11.76"/>
	<rect id="_x30_8242020_x5F_PM" x="1118.41" y="45.02" class="st3" width="11.72" height="11.76"/>
	<rect id="_x30_8252020_x5F_PM" x="1132.23" y="45.02" class="st3" width="11.72" height="11.76"/>
	<rect id="_x30_8262020_x5F_PM" x="1146.06" y="45.02" class="st3" width="11.72" height="11.76"/>
	<rect id="_x30_8272020_x5F_PM" x="1159.89" y="45.02" class="st3" width="11.72" height="11.76"/>
	<rect id="_x30_8282020_x5F_PM" x="1173.72" y="45.02" class="st3" width="11.72" height="11.76"/>
	<rect id="_x30_8292020_x5F_PM" x="1187.93" y="45.02" class="st3" width="11.72" height="11.76"/>
	<rect id="_x30_8302020_x5F_AM" x="1203.48" y="33.27" class="st3" width="11.72" height="11.76"/>
	<rect id="_x30_8312020_x5F_AM" x="1217.31" y="33.27" class="st3" width="11.72" height="11.76"/>
	<rect id="_x30_9012020_x5F_AM" x="1231.13" y="33.27" class="st3" width="11.72" height="11.76"/>
	<rect id="_x30_9022020_x5F_AM" x="1244.96" y="33.27" class="st3" width="11.72" height="11.76"/>
	<rect id="_x30_9032020_x5F_AM" x="1258.79" y="33.27" class="st3" width="11.72" height="11.76"/>
	<rect id="_x30_9042020_x5F_AM" x="1272.62" y="33.27" class="st3" width="11.72" height="11.76"/>
	<rect id="_x30_9052020_x5F_AM" x="1286.83" y="33.27" class="st3" width="11.72" height="11.76"/>
	<rect id="_x30_8302020_x5F_PM" x="1203.48" y="45.02" class="st3" width="11.72" height="11.76"/>
	<rect id="_x30_8312020_x5F_PM" x="1217.31" y="45.02" class="st3" width="11.72" height="11.76"/>
	<rect id="_x30_9012020_x5F_PM" x="1231.13" y="45.02" class="st3" width="11.72" height="11.76"/>
	<rect id="_x30_9022020_x5F_PM" x="1244.96" y="45.02" class="st3" width="11.72" height="11.76"/>
	<rect id="_x30_9032020_x5F_PM" x="1258.79" y="45.02" class="st3" width="11.72" height="11.76"/>
	<rect id="_x30_9042020_x5F_PM" x="1272.62" y="45.02" class="st3" width="11.72" height="11.76"/>
	<rect id="_x30_9052020_x5F_PM" x="1286.83" y="45.02" class="st3" width="11.72" height="11.76"/>
</g>
<g id="buttons">
	<path class="st4" d="M0,32.16v11.37h11.33V32.16H0z M10.1,40.17c0.58,0.59,0.58,1.54,0,2.12c-0.29,0.29-0.68,0.44-1.06,0.44
		c-0.38,0-0.77-0.15-1.06-0.44l-2.31-2.32l-2.31,2.32c-0.29,0.29-0.68,0.44-1.06,0.44c-0.38,0-0.77-0.15-1.06-0.44
		c-0.59-0.58-0.59-1.54,0-2.12l2.32-2.33l-2.32-2.33c-0.58-0.59-0.58-1.54,0-2.12c0.58-0.59,1.54-0.58,2.12,0l2.31,2.32l2.31-2.32
		c0.58-0.59,1.54-0.59,2.12,0c0.59,0.58,0.59,1.54,0,2.12l-2.32,2.33L10.1,40.17z"/>
	<path id="timeLineButtonDeselectAll" class="st5" d="M9.63,34.54c-0.61-0.61-1.59-0.6-2.19,0l-2.39,2.4l-2.39-2.4
		c-0.61-0.61-1.59-0.61-2.19,0c-0.61,0.61-0.61,1.59,0,2.19l2.4,2.41l-2.4,2.41c-0.61,0.61-0.6,1.59,0,2.19
		c0.3,0.3,0.7,0.45,1.1,0.45c0.4,0,0.8-0.15,1.1-0.46l2.39-2.4l2.39,2.4c0.3,0.3,0.7,0.46,1.1,0.46c0.4,0,0.79-0.15,1.1-0.45
		c0.61-0.61,0.61-1.59,0-2.19l-2.4-2.41l2.4-2.41C10.24,36.13,10.24,35.15,9.63,34.54z"/>
</g>
<g id="Layer_5">
</g>
<g id="Text">
	<g>
		<path class="st2" d="M23.69,27.87c0-0.12-0.04-0.22-0.13-0.29c-0.09-0.07-0.24-0.14-0.47-0.21c-0.23-0.07-0.41-0.15-0.54-0.22
			c-0.36-0.2-0.54-0.46-0.54-0.79c0-0.17,0.05-0.33,0.15-0.46c0.1-0.13,0.24-0.24,0.42-0.32c0.18-0.08,0.38-0.11,0.61-0.11
			c0.23,0,0.43,0.04,0.61,0.12c0.18,0.08,0.32,0.2,0.41,0.35c0.1,0.15,0.15,0.32,0.15,0.51h-0.65c0-0.15-0.05-0.26-0.14-0.34
			C23.47,26.04,23.34,26,23.17,26c-0.16,0-0.28,0.03-0.37,0.1c-0.09,0.07-0.13,0.16-0.13,0.27c0,0.1,0.05,0.19,0.16,0.26
			c0.1,0.07,0.26,0.14,0.46,0.2c0.37,0.11,0.64,0.25,0.81,0.42c0.17,0.17,0.26,0.37,0.26,0.62c0,0.28-0.1,0.49-0.31,0.65
			c-0.21,0.16-0.49,0.23-0.84,0.23c-0.24,0-0.47-0.04-0.67-0.13c-0.2-0.09-0.35-0.21-0.46-0.37c-0.11-0.16-0.16-0.34-0.16-0.54h0.66
			c0,0.35,0.21,0.53,0.63,0.53c0.16,0,0.28-0.03,0.36-0.1C23.65,28.07,23.69,27.98,23.69,27.87z"/>
	</g>
	<g>
		<path class="st2" d="M16.26,0.36h1.36v4.58c0,0.42-0.09,0.79-0.28,1.12c-0.19,0.32-0.45,0.57-0.79,0.75
			c-0.34,0.18-0.72,0.26-1.15,0.26c-0.7,0-1.24-0.18-1.63-0.53c-0.39-0.36-0.58-0.86-0.58-1.51h1.37c0,0.32,0.07,0.56,0.2,0.72
			c0.14,0.15,0.35,0.23,0.64,0.23c0.26,0,0.47-0.09,0.62-0.27c0.15-0.18,0.23-0.43,0.23-0.76V0.36z"/>
		<path class="st2" d="M21.64,6.48c-0.32,0.39-0.77,0.59-1.34,0.59c-0.53,0-0.93-0.15-1.2-0.45c-0.28-0.3-0.42-0.75-0.42-1.33V2.06
			h1.31v3.18c0,0.51,0.23,0.77,0.7,0.77c0.44,0,0.75-0.15,0.92-0.46V2.06h1.31v4.92h-1.23L21.64,6.48z"/>
		<path class="st2" d="M25.1,2.06l0.04,0.57c0.35-0.44,0.82-0.66,1.41-0.66c0.52,0,0.91,0.15,1.16,0.46
			C27.97,2.74,28.1,3.2,28.1,3.8v3.18h-1.31V3.84c0-0.28-0.06-0.48-0.18-0.61c-0.12-0.13-0.32-0.19-0.6-0.19
			c-0.37,0-0.65,0.16-0.83,0.47v3.47h-1.31V2.06H25.1z"/>
		<path class="st2" d="M31.35,7.07c-0.72,0-1.3-0.22-1.76-0.66s-0.68-1.03-0.68-1.77V4.51c0-0.49,0.09-0.94,0.29-1.32
			c0.19-0.39,0.46-0.69,0.81-0.9c0.35-0.21,0.75-0.32,1.2-0.32c0.67,0,1.2,0.21,1.58,0.64c0.38,0.42,0.58,1.03,0.58,1.8v0.54h-3.12
			c0.04,0.32,0.17,0.58,0.38,0.77c0.21,0.19,0.48,0.29,0.81,0.29c0.51,0,0.9-0.18,1.18-0.55l0.64,0.72c-0.2,0.28-0.46,0.5-0.8,0.65
			C32.13,7,31.76,7.07,31.35,7.07z M31.2,3.03c-0.26,0-0.47,0.09-0.63,0.26c-0.16,0.18-0.26,0.43-0.31,0.76h1.82V3.95
			C32.07,3.66,32,3.43,31.84,3.27C31.69,3.11,31.48,3.03,31.2,3.03z"/>
	</g>
	<g>
		<path class="st2" d="M17.67,16.76l-2.55,5.89h-1.38l2.56-5.56h-3.28v-1.06h4.66V16.76z"/>
	</g>
	<g>
		<path class="st2" d="M111.79,22.8h-1.31v-5.06l-1.56,0.49v-1.07l2.73-0.98h0.14V22.8z"/>
		<path class="st2" d="M117.81,20.31h0.75v1.06h-0.75v1.43h-1.31v-1.43h-2.71l-0.06-0.83l2.75-4.36h1.32V20.31z M115.04,20.31h1.46
			v-2.34l-0.09,0.15L115.04,20.31z"/>
	</g>
	<g>
		<path class="st2" d="M212.45,22.96h-4.52v-0.9l2.13-2.28c0.29-0.32,0.51-0.6,0.65-0.84c0.14-0.24,0.21-0.47,0.21-0.68
			c0-0.29-0.07-0.52-0.22-0.69c-0.15-0.17-0.36-0.25-0.63-0.25c-0.3,0-0.53,0.1-0.7,0.31c-0.17,0.21-0.26,0.47-0.26,0.81h-1.31
			c0-0.4,0.1-0.77,0.29-1.1c0.19-0.33,0.46-0.59,0.81-0.78c0.35-0.19,0.75-0.28,1.19-0.28c0.68,0,1.21,0.16,1.58,0.49
			c0.38,0.33,0.56,0.79,0.56,1.39c0,0.33-0.08,0.66-0.25,1c-0.17,0.34-0.46,0.73-0.87,1.19l-1.5,1.59h2.84V22.96z"/>
		<path class="st2" d="M216.43,22.96h-1.31V17.9l-1.56,0.49v-1.07l2.73-0.98h0.14V22.96z"/>
	</g>
	<g>
		<path class="st2" d="M310.83,22.96h-4.52v-0.9l2.13-2.28c0.29-0.32,0.51-0.6,0.65-0.84c0.14-0.24,0.21-0.47,0.21-0.68
			c0-0.29-0.07-0.52-0.22-0.69c-0.15-0.17-0.36-0.25-0.63-0.25c-0.3,0-0.53,0.1-0.7,0.31c-0.17,0.21-0.26,0.47-0.26,0.81h-1.31
			c0-0.4,0.1-0.77,0.29-1.1c0.19-0.33,0.46-0.59,0.81-0.78c0.35-0.19,0.75-0.28,1.19-0.28c0.68,0,1.21,0.16,1.58,0.49
			s0.56,0.79,0.56,1.39c0,0.33-0.08,0.66-0.25,1c-0.17,0.34-0.46,0.73-0.87,1.19l-1.5,1.59h2.84V22.96z"/>
		<path class="st2" d="M315.93,18.1c0,0.32-0.08,0.61-0.24,0.85c-0.16,0.25-0.38,0.45-0.66,0.6c0.32,0.15,0.57,0.37,0.76,0.64
			c0.19,0.27,0.28,0.59,0.28,0.96c0,0.59-0.2,1.05-0.6,1.39c-0.4,0.34-0.94,0.51-1.63,0.51s-1.23-0.17-1.63-0.51
			c-0.4-0.34-0.6-0.81-0.6-1.39c0-0.37,0.09-0.69,0.28-0.96c0.19-0.27,0.44-0.48,0.76-0.64c-0.28-0.15-0.5-0.35-0.66-0.6
			c-0.16-0.25-0.24-0.53-0.24-0.85c0-0.56,0.19-1.01,0.56-1.35c0.37-0.33,0.88-0.5,1.53-0.5c0.64,0,1.15,0.17,1.53,0.5
			C315.74,17.08,315.93,17.53,315.93,18.1z M314.75,21.05c0-0.29-0.08-0.52-0.25-0.69c-0.17-0.17-0.39-0.26-0.67-0.26
			c-0.28,0-0.5,0.09-0.67,0.26c-0.17,0.17-0.25,0.4-0.25,0.69c0,0.28,0.08,0.51,0.24,0.68c0.16,0.17,0.39,0.26,0.68,0.26
			c0.28,0,0.51-0.08,0.67-0.25C314.67,21.58,314.75,21.35,314.75,21.05z M314.62,18.17c0-0.26-0.07-0.46-0.2-0.62
			c-0.14-0.16-0.33-0.23-0.58-0.23c-0.24,0-0.43,0.08-0.57,0.23c-0.14,0.15-0.2,0.36-0.2,0.63c0,0.26,0.07,0.48,0.2,0.64
			c0.14,0.16,0.33,0.24,0.58,0.24s0.44-0.08,0.57-0.24C314.55,18.64,314.62,18.43,314.62,18.17z"/>
	</g>
	<g>
		<path class="st2" d="M408.18,19.71l0.38-3.36h3.7v1.1h-2.62l-0.16,1.42c0.31-0.17,0.64-0.25,0.99-0.25c0.63,0,1.12,0.2,1.48,0.59
			c0.36,0.39,0.53,0.94,0.53,1.64c0,0.43-0.09,0.81-0.27,1.15c-0.18,0.34-0.44,0.6-0.77,0.79c-0.34,0.19-0.73,0.28-1.19,0.28
			c-0.4,0-0.77-0.08-1.11-0.24c-0.34-0.16-0.61-0.39-0.81-0.68c-0.2-0.29-0.3-0.63-0.32-1h1.3c0.03,0.28,0.12,0.49,0.29,0.64
			c0.16,0.15,0.38,0.23,0.65,0.23c0.3,0,0.52-0.11,0.68-0.32c0.16-0.21,0.24-0.52,0.24-0.91c0-0.38-0.09-0.66-0.28-0.86
			c-0.18-0.2-0.45-0.3-0.78-0.3c-0.31,0-0.56,0.08-0.76,0.25l-0.13,0.12L408.18,19.71z"/>
	</g>
	<g>
		<path class="st2" d="M507.64,22.8h-1.31v-5.06l-1.56,0.49v-1.07l2.73-0.98h0.14V22.8z"/>
		<path class="st2" d="M514.3,22.8h-4.52v-0.9l2.13-2.28c0.29-0.32,0.51-0.6,0.65-0.84c0.14-0.24,0.21-0.47,0.21-0.68
			c0-0.29-0.07-0.52-0.22-0.69c-0.15-0.17-0.36-0.25-0.63-0.25c-0.3,0-0.53,0.1-0.7,0.31c-0.17,0.21-0.26,0.47-0.26,0.81h-1.31
			c0-0.4,0.1-0.77,0.29-1.1s0.46-0.59,0.81-0.78c0.35-0.19,0.75-0.28,1.19-0.28c0.68,0,1.21,0.16,1.58,0.49s0.56,0.79,0.56,1.39
			c0,0.33-0.08,0.66-0.25,1c-0.17,0.34-0.46,0.73-0.87,1.19l-1.5,1.59h2.84V22.8z"/>
	</g>
	<g>
		<path class="st2" d="M606.4,22.96h-1.31V17.9l-1.56,0.49v-1.07l2.73-0.98h0.14V22.96z"/>
		<path class="st2" d="M611.61,20.32c-0.34,0.34-0.74,0.5-1.2,0.5c-0.58,0-1.05-0.2-1.4-0.6c-0.35-0.4-0.53-0.94-0.53-1.62
			c0-0.43,0.09-0.83,0.28-1.19c0.19-0.36,0.45-0.64,0.79-0.85c0.34-0.2,0.72-0.3,1.14-0.3c0.43,0,0.82,0.11,1.16,0.33
			c0.34,0.22,0.6,0.53,0.79,0.94c0.19,0.41,0.28,0.88,0.28,1.4v0.49c0,1.1-0.27,1.97-0.82,2.6c-0.55,0.63-1.32,0.97-2.32,1.01
			l-0.32,0v-1.1l0.29,0C610.9,21.87,611.51,21.34,611.61,20.32z M610.73,19.82c0.21,0,0.39-0.05,0.55-0.16
			c0.15-0.11,0.27-0.24,0.35-0.4v-0.54c0-0.45-0.08-0.79-0.25-1.04c-0.17-0.25-0.4-0.37-0.68-0.37c-0.26,0-0.48,0.12-0.65,0.36
			c-0.17,0.24-0.25,0.54-0.25,0.91c0,0.36,0.08,0.66,0.25,0.89C610.2,19.7,610.43,19.82,610.73,19.82z"/>
	</g>
	<g>
		<path class="st2" d="M706.7,22.96h-4.52v-0.9l2.13-2.28c0.29-0.32,0.51-0.6,0.65-0.84c0.14-0.24,0.21-0.47,0.21-0.68
			c0-0.29-0.07-0.52-0.22-0.69c-0.15-0.17-0.36-0.25-0.63-0.25c-0.3,0-0.53,0.1-0.7,0.31c-0.17,0.21-0.26,0.47-0.26,0.81h-1.31
			c0-0.4,0.1-0.77,0.29-1.1c0.19-0.33,0.46-0.59,0.81-0.78c0.35-0.19,0.75-0.28,1.19-0.28c0.68,0,1.21,0.16,1.58,0.49
			s0.56,0.79,0.56,1.39c0,0.33-0.08,0.66-0.25,1c-0.17,0.34-0.46,0.73-0.87,1.19l-1.5,1.59h2.84V22.96z"/>
		<path class="st2" d="M707.7,19.71l0.38-3.36h3.7v1.1h-2.62l-0.16,1.42c0.31-0.17,0.64-0.25,0.99-0.25c0.63,0,1.12,0.2,1.48,0.59
			c0.36,0.39,0.53,0.94,0.53,1.64c0,0.43-0.09,0.81-0.27,1.15c-0.18,0.34-0.44,0.6-0.77,0.79c-0.34,0.19-0.73,0.28-1.19,0.28
			c-0.4,0-0.77-0.08-1.11-0.24c-0.34-0.16-0.61-0.39-0.81-0.68c-0.2-0.29-0.3-0.63-0.32-1h1.3c0.03,0.28,0.12,0.49,0.29,0.64
			c0.16,0.15,0.38,0.23,0.65,0.23c0.3,0,0.52-0.11,0.68-0.32c0.16-0.21,0.24-0.52,0.24-0.91c0-0.38-0.09-0.66-0.28-0.86
			c-0.18-0.2-0.45-0.3-0.78-0.3c-0.31,0-0.56,0.08-0.76,0.25l-0.13,0.12L707.7,19.71z"/>
	</g>
	<g>
		<path class="st2" d="M809.03,22.65h-4.52v-0.9l2.13-2.28c0.29-0.32,0.51-0.6,0.65-0.84c0.14-0.24,0.21-0.47,0.21-0.68
			c0-0.29-0.07-0.52-0.22-0.69c-0.15-0.17-0.36-0.25-0.63-0.25c-0.3,0-0.53,0.1-0.7,0.31c-0.17,0.21-0.26,0.47-0.26,0.81h-1.31
			c0-0.4,0.1-0.77,0.29-1.1s0.46-0.59,0.81-0.78c0.35-0.19,0.75-0.28,1.19-0.28c0.68,0,1.21,0.16,1.58,0.49s0.56,0.79,0.56,1.39
			c0,0.33-0.08,0.66-0.25,1c-0.17,0.34-0.46,0.73-0.87,1.19l-1.5,1.59h2.84V22.65z"/>
	</g>
	<g>
		<path class="st2" d="M906.32,20c-0.34,0.34-0.74,0.5-1.2,0.5c-0.58,0-1.05-0.2-1.4-0.6c-0.35-0.4-0.53-0.94-0.53-1.62
			c0-0.43,0.09-0.83,0.28-1.19c0.19-0.36,0.45-0.64,0.79-0.85c0.34-0.2,0.72-0.3,1.14-0.3c0.43,0,0.82,0.11,1.16,0.33
			c0.34,0.22,0.6,0.53,0.79,0.94c0.19,0.41,0.28,0.88,0.28,1.4v0.49c0,1.1-0.27,1.97-0.82,2.6c-0.55,0.63-1.32,0.97-2.32,1.01
			l-0.32,0v-1.1l0.29,0C905.61,21.56,906.23,21.02,906.32,20z M905.45,19.5c0.21,0,0.39-0.05,0.55-0.16s0.27-0.24,0.35-0.4V18.4
			c0-0.45-0.08-0.79-0.25-1.04c-0.17-0.25-0.4-0.37-0.68-0.37c-0.26,0-0.48,0.12-0.65,0.36c-0.17,0.24-0.25,0.54-0.25,0.91
			c0,0.36,0.08,0.66,0.25,0.89C904.92,19.38,905.15,19.5,905.45,19.5z"/>
	</g>
	<g>
		<path class="st2" d="M1002.04,22.65h-1.31v-5.06l-1.56,0.49V17l2.73-0.98h0.14V22.65z"/>
		<path class="st2" d="M1007.74,15.96v1.08h-0.13c-0.59,0.01-1.07,0.16-1.43,0.46c-0.36,0.3-0.58,0.72-0.65,1.25
			c0.35-0.36,0.79-0.54,1.33-0.54c0.57,0,1.03,0.21,1.37,0.62c0.34,0.41,0.51,0.95,0.51,1.63c0,0.43-0.09,0.82-0.28,1.17
			c-0.19,0.35-0.45,0.62-0.79,0.81c-0.34,0.19-0.72,0.29-1.15,0.29c-0.7,0-1.26-0.24-1.68-0.73c-0.43-0.48-0.64-1.13-0.64-1.94V19.6
			c0-0.72,0.13-1.35,0.41-1.9c0.27-0.55,0.66-0.98,1.16-1.28c0.51-0.3,1.09-0.45,1.76-0.46H1007.74z M1006.46,19.28
			c-0.21,0-0.4,0.06-0.58,0.17c-0.17,0.11-0.3,0.26-0.38,0.44v0.4c0,0.44,0.09,0.78,0.26,1.03c0.17,0.25,0.41,0.37,0.73,0.37
			c0.28,0,0.51-0.11,0.68-0.33s0.26-0.51,0.26-0.86c0-0.36-0.09-0.65-0.26-0.87C1007,19.39,1006.76,19.28,1006.46,19.28z"/>
	</g>
	<g>
		<path class="st2" d="M1102.29,22.65h-4.52v-0.9l2.13-2.28c0.29-0.32,0.51-0.6,0.65-0.84c0.14-0.24,0.21-0.47,0.21-0.68
			c0-0.29-0.07-0.52-0.22-0.69c-0.15-0.17-0.36-0.25-0.63-0.25c-0.3,0-0.53,0.1-0.7,0.31c-0.17,0.21-0.26,0.47-0.26,0.81h-1.31
			c0-0.4,0.1-0.77,0.29-1.1c0.19-0.33,0.46-0.59,0.81-0.78c0.35-0.19,0.75-0.28,1.19-0.28c0.68,0,1.21,0.16,1.58,0.49
			c0.38,0.33,0.56,0.79,0.56,1.39c0,0.33-0.08,0.66-0.25,1c-0.17,0.34-0.46,0.73-0.87,1.19l-1.5,1.59h2.84V22.65z"/>
		<path class="st2" d="M1104.42,18.76h0.7c0.33,0,0.58-0.08,0.74-0.25c0.16-0.17,0.24-0.39,0.24-0.66c0-0.27-0.08-0.47-0.24-0.62
			s-0.38-0.22-0.65-0.22c-0.25,0-0.46,0.07-0.63,0.21c-0.17,0.14-0.25,0.32-0.25,0.54h-1.31c0-0.35,0.09-0.66,0.28-0.93
			c0.19-0.27,0.45-0.49,0.78-0.64c0.33-0.15,0.7-0.23,1.1-0.23c0.7,0,1.24,0.17,1.64,0.5c0.4,0.34,0.59,0.8,0.59,1.38
			c0,0.3-0.09,0.58-0.28,0.84c-0.18,0.25-0.43,0.45-0.73,0.59c0.37,0.13,0.65,0.33,0.83,0.6c0.18,0.27,0.27,0.58,0.27,0.95
			c0,0.59-0.21,1.06-0.64,1.41c-0.43,0.35-0.99,0.53-1.7,0.53c-0.66,0-1.2-0.17-1.62-0.52c-0.42-0.35-0.63-0.81-0.63-1.38h1.31
			c0,0.25,0.09,0.45,0.28,0.61c0.18,0.16,0.41,0.24,0.69,0.24c0.31,0,0.56-0.08,0.73-0.25c0.18-0.16,0.26-0.38,0.26-0.66
			c0-0.66-0.36-0.99-1.09-0.99h-0.69V18.76z"/>
	</g>
	<g>
		<path class="st2" d="M356.8,0.36h1.36v4.58c0,0.42-0.09,0.79-0.28,1.12c-0.19,0.32-0.45,0.57-0.79,0.75
			c-0.34,0.18-0.72,0.26-1.15,0.26c-0.7,0-1.24-0.18-1.63-0.53c-0.39-0.36-0.58-0.86-0.58-1.51h1.37c0,0.32,0.07,0.56,0.2,0.72
			c0.14,0.15,0.35,0.23,0.64,0.23c0.26,0,0.47-0.09,0.62-0.27c0.15-0.18,0.23-0.43,0.23-0.76V0.36z"/>
		<path class="st2" d="M362.18,6.48c-0.32,0.39-0.77,0.59-1.34,0.59c-0.53,0-0.93-0.15-1.2-0.45c-0.28-0.3-0.42-0.75-0.42-1.33V2.06
			h1.31v3.18c0,0.51,0.23,0.77,0.7,0.77c0.44,0,0.75-0.15,0.92-0.46V2.06h1.31v4.92h-1.23L362.18,6.48z"/>
		<path class="st2" d="M365.82,6.98h-1.31V0h1.31V6.98z"/>
		<path class="st2" d="M368.73,5.12l0.91-3.06h1.4l-1.97,5.68l-0.11,0.26c-0.29,0.64-0.78,0.96-1.45,0.96
			c-0.19,0-0.38-0.03-0.58-0.09v-1l0.2,0c0.25,0,0.43-0.04,0.55-0.11c0.12-0.08,0.22-0.2,0.29-0.38l0.15-0.4l-1.72-4.93h1.41
			L368.73,5.12z"/>
	</g>
	<g>
		<path class="st2" d="M794.53,5.62h-2.38l-0.45,1.36h-1.45l2.46-6.62h1.26l2.47,6.62h-1.45L794.53,5.62z M792.52,4.51h1.65
			l-0.83-2.48L792.52,4.51z"/>
		<path class="st2" d="M799.86,6.48c-0.32,0.39-0.77,0.59-1.34,0.59c-0.53,0-0.93-0.15-1.2-0.45s-0.42-0.75-0.42-1.33V2.06h1.31
			v3.18c0,0.51,0.23,0.77,0.7,0.77c0.44,0,0.75-0.15,0.92-0.46V2.06h1.31v4.92h-1.23L799.86,6.48z"/>
		<path class="st2" d="M801.92,4.49c0-0.75,0.18-1.36,0.54-1.82c0.36-0.46,0.84-0.69,1.45-0.69c0.54,0,0.96,0.18,1.25,0.55
			l0.05-0.46h1.19v4.75c0,0.43-0.1,0.8-0.29,1.12c-0.2,0.32-0.47,0.56-0.82,0.73s-0.77,0.25-1.24,0.25c-0.36,0-0.71-0.07-1.05-0.22
			s-0.6-0.33-0.77-0.56l0.58-0.8c0.33,0.37,0.72,0.55,1.19,0.55c0.35,0,0.62-0.09,0.81-0.28c0.19-0.19,0.29-0.45,0.29-0.79V6.56
			c-0.3,0.34-0.7,0.51-1.19,0.51c-0.59,0-1.07-0.23-1.43-0.69c-0.36-0.46-0.55-1.08-0.55-1.84V4.49z M803.23,4.58
			c0,0.45,0.09,0.8,0.27,1.05c0.18,0.25,0.42,0.38,0.73,0.38c0.4,0,0.68-0.15,0.86-0.45V3.49c-0.17-0.3-0.46-0.45-0.85-0.45
			c-0.32,0-0.56,0.13-0.74,0.39C803.32,3.69,803.23,4.07,803.23,4.58z"/>
		<path class="st2" d="M810.35,6.48c-0.32,0.39-0.77,0.59-1.34,0.59c-0.53,0-0.93-0.15-1.2-0.45s-0.42-0.75-0.42-1.33V2.06h1.31
			v3.18c0,0.51,0.23,0.77,0.7,0.77c0.44,0,0.75-0.15,0.92-0.46V2.06h1.31v4.92h-1.23L810.35,6.48z"/>
		<path class="st2" d="M815.26,5.62c0-0.16-0.08-0.29-0.24-0.38c-0.16-0.09-0.41-0.18-0.76-0.25c-1.17-0.25-1.75-0.74-1.75-1.49
			c0-0.44,0.18-0.8,0.54-1.09c0.36-0.29,0.83-0.44,1.42-0.44c0.62,0,1.12,0.15,1.49,0.44c0.37,0.29,0.56,0.68,0.56,1.15h-1.31
			c0-0.19-0.06-0.34-0.18-0.47c-0.12-0.12-0.31-0.18-0.57-0.18c-0.22,0-0.39,0.05-0.51,0.15c-0.12,0.1-0.18,0.23-0.18,0.38
			c0,0.15,0.07,0.26,0.21,0.35c0.14,0.09,0.37,0.17,0.7,0.23c0.33,0.07,0.6,0.14,0.82,0.22c0.69,0.25,1.04,0.7,1.04,1.32
			c0,0.45-0.19,0.81-0.58,1.09c-0.38,0.28-0.88,0.42-1.49,0.42c-0.41,0-0.78-0.07-1.09-0.22c-0.32-0.15-0.57-0.35-0.75-0.61
			c-0.18-0.26-0.27-0.53-0.27-0.83h1.24c0.01,0.23,0.1,0.41,0.26,0.54c0.16,0.12,0.37,0.19,0.64,0.19c0.25,0,0.44-0.05,0.57-0.14
			C815.2,5.9,815.26,5.78,815.26,5.62z"/>
		<path class="st2" d="M818.94,0.85v1.21h0.84v0.96h-0.84v2.45c0,0.18,0.04,0.31,0.1,0.39c0.07,0.08,0.2,0.12,0.4,0.12
			c0.15,0,0.27-0.01,0.39-0.03v1c-0.26,0.08-0.52,0.12-0.79,0.12c-0.92,0-1.39-0.47-1.4-1.4V3.03h-0.72V2.06h0.72V0.85H818.94z"/>
	</g>
	<g>
		<path class="st2" d="M1234.1,5.25c0-0.26-0.09-0.46-0.27-0.59c-0.18-0.14-0.51-0.28-0.98-0.44c-0.47-0.15-0.84-0.3-1.12-0.45
			c-0.75-0.41-1.13-0.95-1.13-1.64c0-0.36,0.1-0.68,0.3-0.96c0.2-0.28,0.49-0.5,0.86-0.66c0.38-0.16,0.8-0.24,1.27-0.24
			c0.47,0,0.89,0.09,1.26,0.26c0.37,0.17,0.65,0.41,0.86,0.73c0.2,0.31,0.31,0.67,0.31,1.06h-1.36c0-0.3-0.09-0.54-0.28-0.71
			c-0.19-0.17-0.46-0.25-0.8-0.25c-0.33,0-0.59,0.07-0.78,0.21c-0.18,0.14-0.28,0.33-0.28,0.56c0,0.22,0.11,0.4,0.33,0.54
			c0.22,0.15,0.53,0.28,0.95,0.41c0.77,0.23,1.34,0.52,1.69,0.87c0.35,0.35,0.53,0.78,0.53,1.29c0,0.57-0.22,1.02-0.65,1.35
			c-0.43,0.33-1.01,0.49-1.74,0.49c-0.51,0-0.97-0.09-1.39-0.28c-0.42-0.19-0.73-0.44-0.95-0.77c-0.22-0.32-0.33-0.7-0.33-1.13h1.36
			c0,0.73,0.43,1.1,1.31,1.1c0.32,0,0.58-0.07,0.76-0.2C1234.01,5.67,1234.1,5.48,1234.1,5.25z"/>
		<path class="st2" d="M1238.56,7.07c-0.72,0-1.31-0.22-1.76-0.66c-0.45-0.44-0.68-1.03-0.68-1.77V4.51c0-0.49,0.09-0.94,0.29-1.32
			c0.19-0.39,0.46-0.69,0.81-0.9c0.35-0.21,0.75-0.32,1.19-0.32c0.67,0,1.2,0.21,1.58,0.64s0.58,1.03,0.58,1.8v0.54h-3.12
			c0.04,0.32,0.17,0.58,0.38,0.77c0.21,0.19,0.48,0.29,0.81,0.29c0.51,0,0.9-0.18,1.18-0.55l0.64,0.72c-0.2,0.28-0.46,0.5-0.8,0.65
			C1239.34,7,1238.97,7.07,1238.56,7.07z M1238.41,3.03c-0.26,0-0.47,0.09-0.63,0.26c-0.16,0.18-0.26,0.43-0.31,0.76h1.82V3.95
			c-0.01-0.29-0.08-0.52-0.24-0.68C1238.9,3.11,1238.69,3.03,1238.41,3.03z"/>
		<path class="st2" d="M1245.73,4.57c0,0.76-0.17,1.36-0.52,1.82c-0.34,0.46-0.81,0.68-1.39,0.68c-0.49,0-0.9-0.17-1.2-0.52v2.32
			h-1.31V2.06h1.21l0.04,0.48c0.32-0.38,0.73-0.57,1.24-0.57c0.6,0,1.07,0.22,1.41,0.67c0.34,0.45,0.5,1.07,0.5,1.85V4.57z
			 M1244.42,4.47c0-0.46-0.08-0.81-0.24-1.06s-0.4-0.37-0.71-0.37c-0.41,0-0.69,0.16-0.85,0.47v2.01c0.16,0.32,0.45,0.49,0.86,0.49
			C1244.11,6.01,1244.42,5.5,1244.42,4.47z"/>
		<path class="st2" d="M1248.11,0.85v1.21h0.84v0.96h-0.84v2.45c0,0.18,0.04,0.31,0.11,0.39c0.07,0.08,0.2,0.12,0.4,0.12
			c0.15,0,0.27-0.01,0.39-0.03v1c-0.26,0.08-0.52,0.12-0.79,0.12c-0.92,0-1.39-0.47-1.4-1.4V3.03h-0.72V2.06h0.72V0.85H1248.11z"/>
		<path class="st2" d="M1251.94,7.07c-0.72,0-1.31-0.22-1.76-0.66c-0.45-0.44-0.68-1.03-0.68-1.77V4.51c0-0.49,0.09-0.94,0.29-1.32
			c0.19-0.39,0.46-0.69,0.81-0.9c0.35-0.21,0.75-0.32,1.19-0.32c0.67,0,1.2,0.21,1.58,0.64c0.39,0.42,0.58,1.03,0.58,1.8v0.54h-3.12
			c0.04,0.32,0.17,0.58,0.38,0.77s0.48,0.29,0.81,0.29c0.51,0,0.9-0.18,1.18-0.55l0.64,0.72c-0.2,0.28-0.46,0.5-0.8,0.65
			C1252.72,7,1252.35,7.07,1251.94,7.07z M1251.79,3.03c-0.26,0-0.47,0.09-0.63,0.26c-0.16,0.18-0.26,0.43-0.31,0.76h1.82V3.95
			c-0.01-0.29-0.08-0.52-0.24-0.68C1252.28,3.11,1252.06,3.03,1251.79,3.03z"/>
		<path class="st2" d="M1255.93,2.06l0.04,0.55c0.35-0.43,0.82-0.64,1.41-0.64c0.63,0,1.07,0.25,1.3,0.75
			c0.35-0.5,0.84-0.75,1.47-0.75c0.53,0,0.93,0.16,1.19,0.47c0.26,0.31,0.39,0.78,0.39,1.4v3.14h-1.32V3.85
			c0-0.28-0.05-0.48-0.16-0.61c-0.11-0.13-0.3-0.19-0.58-0.19c-0.39,0-0.66,0.19-0.82,0.56l0,3.38h-1.31V3.85
			c0-0.28-0.06-0.49-0.17-0.62c-0.11-0.13-0.3-0.19-0.57-0.19c-0.37,0-0.64,0.15-0.81,0.46v3.48h-1.31V2.06H1255.93z"/>
		<path class="st2" d="M1267.15,4.57c0,0.79-0.17,1.4-0.5,1.84c-0.34,0.44-0.8,0.66-1.41,0.66c-0.53,0-0.96-0.2-1.27-0.61
			l-0.06,0.52h-1.18V0h1.31v2.5c0.3-0.35,0.7-0.53,1.19-0.53c0.6,0,1.07,0.22,1.41,0.66c0.34,0.44,0.51,1.06,0.51,1.86V4.57z
			 M1265.84,4.47c0-0.5-0.08-0.86-0.24-1.09c-0.16-0.23-0.39-0.34-0.7-0.34c-0.42,0-0.7,0.17-0.86,0.51V5.5
			c0.16,0.35,0.45,0.52,0.87,0.52c0.42,0,0.7-0.21,0.83-0.63C1265.81,5.19,1265.84,4.88,1265.84,4.47z"/>
		<path class="st2" d="M1270.21,7.07c-0.72,0-1.3-0.22-1.76-0.66c-0.45-0.44-0.68-1.03-0.68-1.77V4.51c0-0.49,0.09-0.94,0.28-1.32
			c0.19-0.39,0.46-0.69,0.81-0.9c0.35-0.21,0.75-0.32,1.2-0.32c0.67,0,1.2,0.21,1.58,0.64c0.38,0.42,0.58,1.03,0.58,1.8v0.54h-3.12
			c0.04,0.32,0.17,0.58,0.38,0.77c0.21,0.19,0.48,0.29,0.81,0.29c0.51,0,0.9-0.18,1.18-0.55l0.64,0.72c-0.2,0.28-0.46,0.5-0.8,0.65
			C1270.99,7,1270.62,7.07,1270.21,7.07z M1270.06,3.03c-0.26,0-0.47,0.09-0.63,0.26c-0.16,0.18-0.26,0.43-0.31,0.76h1.82V3.95
			c-0.01-0.29-0.08-0.52-0.23-0.68C1270.56,3.11,1270.34,3.03,1270.06,3.03z"/>
		<path class="st2" d="M1275.73,3.3c-0.18-0.02-0.34-0.04-0.47-0.04c-0.5,0-0.82,0.17-0.98,0.5v3.22h-1.31V2.06h1.24l0.04,0.59
			c0.26-0.45,0.63-0.68,1.09-0.68c0.15,0,0.28,0.02,0.41,0.06L1275.73,3.3z"/>
	</g>
	<g>
		<path class="st2" d="M36.03,25.52l0.82,2.31l0.81-2.31h0.86v3.19h-0.66v-0.87l0.06-1.5l-0.86,2.37h-0.45l-0.86-2.37l0.07,1.5v0.87
			h-0.65v-3.19H36.03z"/>
	</g>
	<g>
		<path class="st2" d="M52.19,26.05h-0.97v2.65h-0.65v-2.65H49.6v-0.53h2.59V26.05z"/>
	</g>
	<g>
		<path class="st2" d="M65.4,27.79l0.43-2.27h0.65l-0.71,3.19h-0.66l-0.52-2.13l-0.52,2.13h-0.66l-0.7-3.19h0.65l0.43,2.26
			l0.52-2.26h0.55L65.4,27.79z"/>
	</g>
	<g>
		<path class="st2" d="M78.35,27.54h-0.52v1.17h-0.65v-3.19h1.18c0.38,0,0.66,0.08,0.87,0.25c0.2,0.17,0.31,0.4,0.31,0.71
			c0,0.22-0.05,0.4-0.14,0.54c-0.09,0.14-0.24,0.26-0.43,0.35l0.69,1.3v0.03h-0.7L78.35,27.54z M77.83,27.01h0.53
			c0.16,0,0.29-0.04,0.38-0.13c0.09-0.08,0.14-0.2,0.14-0.35c0-0.15-0.04-0.27-0.13-0.35c-0.08-0.09-0.22-0.13-0.39-0.13h-0.53
			V27.01z"/>
	</g>
	<g>
		<path class="st2" d="M92.96,27.4h-1.26v1.3h-0.65v-3.19h2.07v0.53h-1.41v0.82h1.26V27.4z"/>
	</g>
	<g>
		<path class="st2" d="M106.77,27.9c0-0.12-0.04-0.22-0.13-0.29c-0.09-0.07-0.24-0.14-0.47-0.21c-0.23-0.07-0.41-0.15-0.54-0.22
			c-0.36-0.2-0.54-0.46-0.54-0.79c0-0.17,0.05-0.33,0.15-0.46s0.24-0.24,0.42-0.32c0.18-0.08,0.38-0.11,0.61-0.11
			c0.23,0,0.43,0.04,0.61,0.12c0.18,0.08,0.32,0.2,0.41,0.35c0.1,0.15,0.15,0.32,0.15,0.51h-0.65c0-0.15-0.05-0.26-0.14-0.34
			c-0.09-0.08-0.22-0.12-0.39-0.12c-0.16,0-0.28,0.03-0.37,0.1c-0.09,0.07-0.13,0.16-0.13,0.27c0,0.1,0.05,0.19,0.16,0.26
			s0.26,0.14,0.46,0.2c0.37,0.11,0.64,0.25,0.81,0.42c0.17,0.17,0.26,0.37,0.26,0.62c0,0.28-0.1,0.49-0.31,0.65
			s-0.49,0.23-0.84,0.23c-0.24,0-0.47-0.04-0.67-0.13c-0.2-0.09-0.35-0.21-0.46-0.37c-0.11-0.16-0.16-0.34-0.16-0.54h0.66
			c0,0.35,0.21,0.53,0.63,0.53c0.16,0,0.28-0.03,0.36-0.1C106.73,28.1,106.77,28.02,106.77,27.9z"/>
	</g>
	<g>
		<path class="st2" d="M122.59,27.87c0-0.12-0.04-0.22-0.13-0.29c-0.09-0.07-0.24-0.14-0.47-0.21c-0.23-0.07-0.41-0.15-0.54-0.22
			c-0.36-0.2-0.54-0.46-0.54-0.79c0-0.17,0.05-0.33,0.15-0.46c0.1-0.13,0.24-0.24,0.42-0.32c0.18-0.08,0.38-0.11,0.61-0.11
			c0.23,0,0.43,0.04,0.61,0.12c0.18,0.08,0.32,0.2,0.41,0.35c0.1,0.15,0.15,0.32,0.15,0.51h-0.65c0-0.15-0.05-0.26-0.14-0.34
			c-0.09-0.08-0.22-0.12-0.39-0.12c-0.16,0-0.28,0.03-0.37,0.1c-0.09,0.07-0.13,0.16-0.13,0.27c0,0.1,0.05,0.19,0.16,0.26
			s0.26,0.14,0.46,0.2c0.37,0.11,0.64,0.25,0.81,0.42c0.17,0.17,0.26,0.37,0.26,0.62c0,0.28-0.1,0.49-0.31,0.65
			c-0.21,0.16-0.49,0.23-0.84,0.23c-0.24,0-0.47-0.04-0.67-0.13c-0.2-0.09-0.35-0.21-0.46-0.37c-0.11-0.16-0.16-0.34-0.16-0.54h0.66
			c0,0.35,0.21,0.53,0.63,0.53c0.16,0,0.28-0.03,0.36-0.1C122.55,28.07,122.59,27.98,122.59,27.87z"/>
	</g>
	<g>
		<path class="st2" d="M134.93,25.52l0.82,2.31l0.81-2.31h0.86v3.19h-0.66v-0.87l0.06-1.5l-0.86,2.37h-0.45l-0.86-2.37l0.07,1.5
			v0.87h-0.65v-3.19H134.93z"/>
	</g>
	<g>
		<path class="st2" d="M151.09,26.05h-0.97v2.65h-0.65v-2.65h-0.96v-0.53h2.59V26.05z"/>
	</g>
	<g>
		<path class="st2" d="M164.3,27.79l0.43-2.27h0.65l-0.71,3.19h-0.66l-0.52-2.13l-0.52,2.13h-0.66l-0.7-3.19h0.65l0.43,2.26
			l0.52-2.26h0.55L164.3,27.79z"/>
	</g>
	<g>
		<path class="st2" d="M177.25,27.54h-0.52v1.17h-0.65v-3.19h1.18c0.38,0,0.66,0.08,0.87,0.25c0.2,0.17,0.31,0.4,0.31,0.71
			c0,0.22-0.05,0.4-0.14,0.54c-0.09,0.14-0.24,0.26-0.43,0.35l0.69,1.3v0.03h-0.7L177.25,27.54z M176.73,27.01h0.53
			c0.16,0,0.29-0.04,0.38-0.13c0.09-0.08,0.14-0.2,0.14-0.35c0-0.15-0.04-0.27-0.13-0.35c-0.08-0.09-0.22-0.13-0.39-0.13h-0.53
			V27.01z"/>
	</g>
	<g>
		<path class="st2" d="M191.86,27.4h-1.26v1.3h-0.65v-3.19h2.07v0.53h-1.41v0.82h1.26V27.4z"/>
	</g>
	<g>
		<path class="st2" d="M205.67,27.9c0-0.12-0.04-0.22-0.13-0.29c-0.09-0.07-0.24-0.14-0.47-0.21c-0.23-0.07-0.41-0.15-0.54-0.22
			c-0.36-0.2-0.54-0.46-0.54-0.79c0-0.17,0.05-0.33,0.15-0.46c0.1-0.13,0.24-0.24,0.42-0.32c0.18-0.08,0.38-0.11,0.61-0.11
			c0.23,0,0.43,0.04,0.61,0.12c0.18,0.08,0.32,0.2,0.41,0.35c0.1,0.15,0.15,0.32,0.15,0.51h-0.65c0-0.15-0.05-0.26-0.14-0.34
			c-0.09-0.08-0.22-0.12-0.39-0.12c-0.16,0-0.28,0.03-0.37,0.1c-0.09,0.07-0.13,0.16-0.13,0.27c0,0.1,0.05,0.19,0.16,0.26
			s0.26,0.14,0.46,0.2c0.37,0.11,0.64,0.25,0.81,0.42c0.17,0.17,0.26,0.37,0.26,0.62c0,0.28-0.1,0.49-0.31,0.65
			s-0.49,0.23-0.84,0.23c-0.24,0-0.47-0.04-0.67-0.13c-0.2-0.09-0.35-0.21-0.46-0.37c-0.11-0.16-0.16-0.34-0.16-0.54h0.66
			c0,0.35,0.21,0.53,0.63,0.53c0.16,0,0.28-0.03,0.36-0.1C205.63,28.1,205.67,28.02,205.67,27.9z"/>
	</g>
	<g>
		<path class="st2" d="M221.49,27.87c0-0.12-0.04-0.22-0.13-0.29c-0.09-0.07-0.24-0.14-0.47-0.21c-0.23-0.07-0.41-0.15-0.54-0.22
			c-0.36-0.2-0.54-0.46-0.54-0.79c0-0.17,0.05-0.33,0.15-0.46c0.1-0.13,0.24-0.24,0.42-0.32c0.18-0.08,0.38-0.11,0.61-0.11
			c0.23,0,0.43,0.04,0.61,0.12c0.18,0.08,0.32,0.2,0.41,0.35c0.1,0.15,0.15,0.32,0.15,0.51h-0.65c0-0.15-0.05-0.26-0.14-0.34
			c-0.09-0.08-0.22-0.12-0.39-0.12c-0.16,0-0.28,0.03-0.37,0.1c-0.09,0.07-0.13,0.16-0.13,0.27c0,0.1,0.05,0.19,0.16,0.26
			s0.26,0.14,0.46,0.2c0.37,0.11,0.64,0.25,0.81,0.42c0.17,0.17,0.26,0.37,0.26,0.62c0,0.28-0.1,0.49-0.31,0.65
			c-0.21,0.16-0.49,0.23-0.84,0.23c-0.24,0-0.47-0.04-0.67-0.13c-0.2-0.09-0.35-0.21-0.46-0.37c-0.11-0.16-0.16-0.34-0.16-0.54h0.66
			c0,0.35,0.21,0.53,0.63,0.53c0.16,0,0.28-0.03,0.36-0.1C221.45,28.07,221.49,27.98,221.49,27.87z"/>
	</g>
	<g>
		<path class="st2" d="M233.83,25.52l0.82,2.31l0.81-2.31h0.86v3.19h-0.66v-0.87l0.06-1.5l-0.86,2.37h-0.45l-0.86-2.37l0.07,1.5
			v0.87h-0.65v-3.19H233.83z"/>
	</g>
	<g>
		<path class="st2" d="M249.99,26.05h-0.97v2.65h-0.65v-2.65h-0.96v-0.53h2.59V26.05z"/>
	</g>
	<g>
		<path class="st2" d="M263.2,27.79l0.43-2.27h0.65l-0.71,3.19h-0.66l-0.52-2.13l-0.52,2.13h-0.66l-0.7-3.19h0.65l0.43,2.26
			l0.52-2.26h0.55L263.2,27.79z"/>
	</g>
	<g>
		<path class="st2" d="M276.15,27.54h-0.52v1.17h-0.65v-3.19h1.18c0.38,0,0.66,0.08,0.87,0.25c0.2,0.17,0.31,0.4,0.31,0.71
			c0,0.22-0.05,0.4-0.14,0.54c-0.09,0.14-0.24,0.26-0.43,0.35l0.69,1.3v0.03h-0.7L276.15,27.54z M275.63,27.01h0.53
			c0.16,0,0.29-0.04,0.38-0.13c0.09-0.08,0.14-0.2,0.14-0.35c0-0.15-0.04-0.27-0.13-0.35c-0.08-0.09-0.22-0.13-0.39-0.13h-0.53
			V27.01z"/>
	</g>
	<g>
		<path class="st2" d="M290.76,27.4h-1.26v1.3h-0.65v-3.19h2.07v0.53h-1.41v0.82h1.26V27.4z"/>
	</g>
	<g>
		<path class="st2" d="M304.57,27.9c0-0.12-0.04-0.22-0.13-0.29c-0.09-0.07-0.24-0.14-0.47-0.21c-0.23-0.07-0.41-0.15-0.54-0.22
			c-0.36-0.2-0.54-0.46-0.54-0.79c0-0.17,0.05-0.33,0.15-0.46s0.24-0.24,0.42-0.32c0.18-0.08,0.38-0.11,0.61-0.11
			c0.23,0,0.43,0.04,0.61,0.12c0.18,0.08,0.32,0.2,0.41,0.35c0.1,0.15,0.15,0.32,0.15,0.51h-0.65c0-0.15-0.05-0.26-0.14-0.34
			c-0.09-0.08-0.22-0.12-0.39-0.12c-0.16,0-0.28,0.03-0.37,0.1c-0.09,0.07-0.13,0.16-0.13,0.27c0,0.1,0.05,0.19,0.16,0.26
			s0.26,0.14,0.46,0.2c0.37,0.11,0.64,0.25,0.81,0.42c0.17,0.17,0.26,0.37,0.26,0.62c0,0.28-0.1,0.49-0.31,0.65
			s-0.49,0.23-0.84,0.23c-0.24,0-0.47-0.04-0.67-0.13c-0.2-0.09-0.35-0.21-0.46-0.37c-0.11-0.16-0.16-0.34-0.16-0.54h0.66
			c0,0.35,0.21,0.53,0.63,0.53c0.16,0,0.28-0.03,0.36-0.1C304.52,28.1,304.57,28.02,304.57,27.9z"/>
	</g>
	<g>
		<path class="st2" d="M320.39,27.87c0-0.12-0.04-0.22-0.13-0.29c-0.09-0.07-0.24-0.14-0.47-0.21c-0.23-0.07-0.41-0.15-0.54-0.22
			c-0.36-0.2-0.54-0.46-0.54-0.79c0-0.17,0.05-0.33,0.15-0.46c0.1-0.13,0.24-0.24,0.42-0.32c0.18-0.08,0.38-0.11,0.61-0.11
			c0.23,0,0.43,0.04,0.61,0.12c0.18,0.08,0.32,0.2,0.41,0.35c0.1,0.15,0.15,0.32,0.15,0.51h-0.65c0-0.15-0.05-0.26-0.14-0.34
			c-0.09-0.08-0.22-0.12-0.39-0.12c-0.16,0-0.28,0.03-0.37,0.1c-0.09,0.07-0.13,0.16-0.13,0.27c0,0.1,0.05,0.19,0.16,0.26
			c0.1,0.07,0.26,0.14,0.46,0.2c0.37,0.11,0.64,0.25,0.81,0.42c0.17,0.17,0.26,0.37,0.26,0.62c0,0.28-0.1,0.49-0.31,0.65
			c-0.21,0.16-0.49,0.23-0.84,0.23c-0.24,0-0.47-0.04-0.67-0.13c-0.2-0.09-0.35-0.21-0.46-0.37c-0.11-0.16-0.16-0.34-0.16-0.54h0.66
			c0,0.35,0.21,0.53,0.63,0.53c0.16,0,0.28-0.03,0.36-0.1C320.35,28.07,320.39,27.98,320.39,27.87z"/>
	</g>
	<g>
		<path class="st2" d="M332.73,25.52l0.82,2.31l0.81-2.31h0.86v3.19h-0.66v-0.87l0.06-1.5l-0.86,2.37h-0.45l-0.86-2.37l0.07,1.5
			v0.87h-0.65v-3.19H332.73z"/>
	</g>
	<g>
		<path class="st2" d="M348.88,26.05h-0.97v2.65h-0.65v-2.65h-0.96v-0.53h2.59V26.05z"/>
	</g>
	<g>
		<path class="st2" d="M362.1,27.79l0.43-2.27h0.65l-0.71,3.19h-0.66l-0.52-2.13l-0.52,2.13h-0.66l-0.7-3.19h0.65l0.43,2.26
			l0.52-2.26h0.55L362.1,27.79z"/>
	</g>
	<g>
		<path class="st2" d="M375.05,27.54h-0.52v1.17h-0.65v-3.19h1.18c0.38,0,0.66,0.08,0.87,0.25c0.2,0.17,0.31,0.4,0.31,0.71
			c0,0.22-0.05,0.4-0.14,0.54c-0.09,0.14-0.24,0.26-0.43,0.35l0.69,1.3v0.03h-0.7L375.05,27.54z M374.53,27.01h0.53
			c0.16,0,0.29-0.04,0.38-0.13c0.09-0.08,0.14-0.2,0.14-0.35c0-0.15-0.04-0.27-0.13-0.35c-0.08-0.09-0.22-0.13-0.39-0.13h-0.53
			V27.01z"/>
	</g>
	<g>
		<path class="st2" d="M389.66,27.4h-1.26v1.3h-0.65v-3.19h2.07v0.53h-1.41v0.82h1.26V27.4z"/>
	</g>
	<g>
		<path class="st2" d="M403.47,27.9c0-0.12-0.04-0.22-0.13-0.29c-0.09-0.07-0.24-0.14-0.47-0.21c-0.23-0.07-0.41-0.15-0.54-0.22
			c-0.36-0.2-0.54-0.46-0.54-0.79c0-0.17,0.05-0.33,0.15-0.46c0.1-0.13,0.24-0.24,0.42-0.32c0.18-0.08,0.38-0.11,0.61-0.11
			c0.23,0,0.43,0.04,0.61,0.12c0.18,0.08,0.32,0.2,0.41,0.35c0.1,0.15,0.15,0.32,0.15,0.51h-0.65c0-0.15-0.05-0.26-0.14-0.34
			c-0.09-0.08-0.22-0.12-0.39-0.12c-0.16,0-0.28,0.03-0.37,0.1c-0.09,0.07-0.13,0.16-0.13,0.27c0,0.1,0.05,0.19,0.16,0.26
			c0.1,0.07,0.26,0.14,0.46,0.2c0.37,0.11,0.64,0.25,0.81,0.42c0.17,0.17,0.26,0.37,0.26,0.62c0,0.28-0.1,0.49-0.31,0.65
			s-0.49,0.23-0.84,0.23c-0.24,0-0.47-0.04-0.67-0.13c-0.2-0.09-0.35-0.21-0.46-0.37c-0.11-0.16-0.16-0.34-0.16-0.54h0.66
			c0,0.35,0.21,0.53,0.63,0.53c0.16,0,0.28-0.03,0.36-0.1C403.42,28.1,403.47,28.02,403.47,27.9z"/>
	</g>
	<g>
		<path class="st2" d="M419.29,27.87c0-0.12-0.04-0.22-0.13-0.29c-0.09-0.07-0.24-0.14-0.47-0.21c-0.23-0.07-0.41-0.15-0.54-0.22
			c-0.36-0.2-0.54-0.46-0.54-0.79c0-0.17,0.05-0.33,0.15-0.46c0.1-0.13,0.24-0.24,0.42-0.32c0.18-0.08,0.38-0.11,0.61-0.11
			c0.23,0,0.43,0.04,0.61,0.12c0.18,0.08,0.32,0.2,0.41,0.35c0.1,0.15,0.15,0.32,0.15,0.51h-0.65c0-0.15-0.05-0.26-0.14-0.34
			c-0.09-0.08-0.22-0.12-0.39-0.12c-0.16,0-0.28,0.03-0.37,0.1c-0.09,0.07-0.13,0.16-0.13,0.27c0,0.1,0.05,0.19,0.16,0.26
			c0.1,0.07,0.26,0.14,0.46,0.2c0.37,0.11,0.64,0.25,0.81,0.42c0.17,0.17,0.26,0.37,0.26,0.62c0,0.28-0.1,0.49-0.31,0.65
			c-0.21,0.16-0.49,0.23-0.84,0.23c-0.24,0-0.47-0.04-0.67-0.13c-0.2-0.09-0.35-0.21-0.46-0.37c-0.11-0.16-0.16-0.34-0.16-0.54h0.66
			c0,0.35,0.21,0.53,0.63,0.53c0.16,0,0.28-0.03,0.36-0.1C419.24,28.07,419.29,27.98,419.29,27.87z"/>
	</g>
	<g>
		<path class="st2" d="M431.63,25.52l0.82,2.31l0.81-2.31h0.86v3.19h-0.66v-0.87l0.06-1.5l-0.86,2.37h-0.45l-0.86-2.37l0.07,1.5
			v0.87h-0.65v-3.19H431.63z"/>
	</g>
	<g>
		<path class="st2" d="M447.78,26.05h-0.97v2.65h-0.65v-2.65h-0.96v-0.53h2.59V26.05z"/>
	</g>
	<g>
		<path class="st2" d="M461,27.79l0.43-2.27h0.65l-0.71,3.19h-0.66l-0.52-2.13l-0.52,2.13h-0.66l-0.7-3.19h0.65l0.43,2.26l0.52-2.26
			h0.55L461,27.79z"/>
	</g>
	<g>
		<path class="st2" d="M473.95,27.54h-0.52v1.17h-0.65v-3.19h1.18c0.38,0,0.66,0.08,0.87,0.25c0.2,0.17,0.31,0.4,0.31,0.71
			c0,0.22-0.05,0.4-0.14,0.54c-0.09,0.14-0.24,0.26-0.43,0.35l0.69,1.3v0.03h-0.7L473.95,27.54z M473.42,27.01h0.53
			c0.16,0,0.29-0.04,0.38-0.13c0.09-0.08,0.14-0.2,0.14-0.35c0-0.15-0.04-0.27-0.13-0.35c-0.08-0.09-0.22-0.13-0.39-0.13h-0.53
			V27.01z"/>
	</g>
	<g>
		<path class="st2" d="M488.56,27.4h-1.26v1.3h-0.65v-3.19h2.07v0.53h-1.41v0.82h1.26V27.4z"/>
	</g>
	<g>
		<path class="st2" d="M502.37,27.9c0-0.12-0.04-0.22-0.13-0.29c-0.09-0.07-0.24-0.14-0.47-0.21c-0.23-0.07-0.41-0.15-0.54-0.22
			c-0.36-0.2-0.54-0.46-0.54-0.79c0-0.17,0.05-0.33,0.15-0.46c0.1-0.13,0.24-0.24,0.42-0.32c0.18-0.08,0.38-0.11,0.61-0.11
			c0.23,0,0.43,0.04,0.61,0.12c0.18,0.08,0.32,0.2,0.41,0.35c0.1,0.15,0.15,0.32,0.15,0.51h-0.65c0-0.15-0.05-0.26-0.14-0.34
			c-0.09-0.08-0.22-0.12-0.39-0.12c-0.16,0-0.28,0.03-0.37,0.1c-0.09,0.07-0.13,0.16-0.13,0.27c0,0.1,0.05,0.19,0.16,0.26
			c0.1,0.07,0.26,0.14,0.46,0.2c0.37,0.11,0.64,0.25,0.81,0.42c0.17,0.17,0.26,0.37,0.26,0.62c0,0.28-0.1,0.49-0.31,0.65
			s-0.49,0.23-0.84,0.23c-0.24,0-0.47-0.04-0.67-0.13c-0.2-0.09-0.35-0.21-0.46-0.37c-0.11-0.16-0.16-0.34-0.16-0.54h0.66
			c0,0.35,0.21,0.53,0.63,0.53c0.16,0,0.28-0.03,0.36-0.1C502.32,28.1,502.37,28.02,502.37,27.9z"/>
	</g>
	<g>
		<path class="st2" d="M518.19,27.87c0-0.12-0.04-0.22-0.13-0.29c-0.09-0.07-0.24-0.14-0.47-0.21c-0.23-0.07-0.41-0.15-0.54-0.22
			c-0.36-0.2-0.54-0.46-0.54-0.79c0-0.17,0.05-0.33,0.15-0.46c0.1-0.13,0.24-0.24,0.42-0.32c0.18-0.08,0.38-0.11,0.61-0.11
			c0.23,0,0.43,0.04,0.61,0.12c0.18,0.08,0.32,0.2,0.41,0.35c0.1,0.15,0.15,0.32,0.15,0.51h-0.65c0-0.15-0.05-0.26-0.14-0.34
			c-0.09-0.08-0.22-0.12-0.39-0.12c-0.16,0-0.28,0.03-0.37,0.1c-0.09,0.07-0.13,0.16-0.13,0.27c0,0.1,0.05,0.19,0.16,0.26
			c0.1,0.07,0.26,0.14,0.46,0.2c0.37,0.11,0.64,0.25,0.81,0.42c0.17,0.17,0.26,0.37,0.26,0.62c0,0.28-0.1,0.49-0.31,0.65
			c-0.21,0.16-0.49,0.23-0.84,0.23c-0.24,0-0.47-0.04-0.67-0.13c-0.2-0.09-0.35-0.21-0.46-0.37c-0.11-0.16-0.16-0.34-0.16-0.54h0.66
			c0,0.35,0.21,0.53,0.63,0.53c0.16,0,0.28-0.03,0.36-0.1C518.14,28.07,518.19,27.98,518.19,27.87z"/>
	</g>
	<g>
		<path class="st2" d="M530.53,25.52l0.82,2.31l0.81-2.31h0.86v3.19h-0.66v-0.87l0.06-1.5l-0.86,2.37h-0.45l-0.86-2.37l0.07,1.5
			v0.87h-0.65v-3.19H530.53z"/>
	</g>
	<g>
		<path class="st2" d="M546.68,26.05h-0.97v2.65h-0.65v-2.65h-0.96v-0.53h2.59V26.05z"/>
	</g>
	<g>
		<path class="st2" d="M559.9,27.79l0.43-2.27h0.65l-0.71,3.19h-0.66l-0.52-2.13l-0.52,2.13h-0.66l-0.7-3.19h0.65l0.43,2.26
			l0.52-2.26h0.55L559.9,27.79z"/>
	</g>
	<g>
		<path class="st2" d="M572.85,27.54h-0.52v1.17h-0.65v-3.19h1.18c0.38,0,0.66,0.08,0.87,0.25c0.2,0.17,0.31,0.4,0.31,0.71
			c0,0.22-0.05,0.4-0.14,0.54c-0.09,0.14-0.24,0.26-0.43,0.35l0.69,1.3v0.03h-0.7L572.85,27.54z M572.32,27.01h0.53
			c0.16,0,0.29-0.04,0.38-0.13c0.09-0.08,0.14-0.2,0.14-0.35c0-0.15-0.04-0.27-0.13-0.35c-0.08-0.09-0.22-0.13-0.39-0.13h-0.53
			V27.01z"/>
	</g>
	<g>
		<path class="st2" d="M587.46,27.4h-1.26v1.3h-0.65v-3.19h2.07v0.53h-1.41v0.82h1.26V27.4z"/>
	</g>
	<g>
		<path class="st2" d="M601.26,27.9c0-0.12-0.04-0.22-0.13-0.29c-0.09-0.07-0.24-0.14-0.47-0.21c-0.23-0.07-0.41-0.15-0.54-0.22
			c-0.36-0.2-0.54-0.46-0.54-0.79c0-0.17,0.05-0.33,0.15-0.46s0.24-0.24,0.42-0.32c0.18-0.08,0.38-0.11,0.61-0.11
			c0.23,0,0.43,0.04,0.61,0.12c0.18,0.08,0.32,0.2,0.41,0.35c0.1,0.15,0.15,0.32,0.15,0.51h-0.65c0-0.15-0.05-0.26-0.14-0.34
			c-0.09-0.08-0.22-0.12-0.39-0.12c-0.16,0-0.28,0.03-0.37,0.1c-0.09,0.07-0.13,0.16-0.13,0.27c0,0.1,0.05,0.19,0.16,0.26
			c0.1,0.07,0.26,0.14,0.46,0.2c0.37,0.11,0.64,0.25,0.81,0.42c0.17,0.17,0.26,0.37,0.26,0.62c0,0.28-0.1,0.49-0.31,0.65
			c-0.21,0.16-0.49,0.23-0.84,0.23c-0.24,0-0.47-0.04-0.67-0.13c-0.2-0.09-0.35-0.21-0.46-0.37c-0.11-0.16-0.16-0.34-0.16-0.54h0.66
			c0,0.35,0.21,0.53,0.63,0.53c0.16,0,0.28-0.03,0.36-0.1C601.22,28.1,601.26,28.02,601.26,27.9z"/>
	</g>
	<g>
		<path class="st2" d="M617.09,27.87c0-0.12-0.04-0.22-0.13-0.29c-0.09-0.07-0.24-0.14-0.47-0.21c-0.23-0.07-0.41-0.15-0.54-0.22
			c-0.36-0.2-0.54-0.46-0.54-0.79c0-0.17,0.05-0.33,0.15-0.46c0.1-0.13,0.24-0.24,0.42-0.32c0.18-0.08,0.38-0.11,0.61-0.11
			c0.23,0,0.43,0.04,0.61,0.12c0.18,0.08,0.32,0.2,0.41,0.35c0.1,0.15,0.15,0.32,0.15,0.51h-0.65c0-0.15-0.05-0.26-0.14-0.34
			c-0.09-0.08-0.22-0.12-0.39-0.12c-0.16,0-0.28,0.03-0.37,0.1c-0.09,0.07-0.13,0.16-0.13,0.27c0,0.1,0.05,0.19,0.16,0.26
			s0.26,0.14,0.46,0.2c0.37,0.11,0.64,0.25,0.81,0.42c0.17,0.17,0.26,0.37,0.26,0.62c0,0.28-0.1,0.49-0.31,0.65
			c-0.21,0.16-0.49,0.23-0.84,0.23c-0.24,0-0.47-0.04-0.67-0.13c-0.2-0.09-0.35-0.21-0.46-0.37c-0.11-0.16-0.16-0.34-0.16-0.54h0.66
			c0,0.35,0.21,0.53,0.63,0.53c0.16,0,0.28-0.03,0.36-0.1C617.04,28.07,617.09,27.98,617.09,27.87z"/>
	</g>
	<g>
		<path class="st2" d="M629.42,25.52l0.82,2.31l0.81-2.31h0.86v3.19h-0.66v-0.87l0.06-1.5l-0.86,2.37h-0.45l-0.86-2.37l0.07,1.5
			v0.87h-0.65v-3.19H629.42z"/>
	</g>
	<g>
		<path class="st2" d="M645.58,26.05h-0.97v2.65h-0.65v-2.65h-0.96v-0.53h2.59V26.05z"/>
	</g>
	<g>
		<path class="st2" d="M658.79,27.79l0.43-2.27h0.65l-0.71,3.19h-0.66l-0.52-2.13l-0.52,2.13h-0.66l-0.7-3.19h0.65l0.43,2.26
			l0.52-2.26h0.55L658.79,27.79z"/>
	</g>
	<g>
		<path class="st2" d="M671.74,27.54h-0.52v1.17h-0.65v-3.19h1.18c0.38,0,0.66,0.08,0.87,0.25c0.2,0.17,0.31,0.4,0.31,0.71
			c0,0.22-0.05,0.4-0.14,0.54c-0.09,0.14-0.24,0.26-0.43,0.35l0.69,1.3v0.03h-0.7L671.74,27.54z M671.22,27.01h0.53
			c0.16,0,0.29-0.04,0.38-0.13c0.09-0.08,0.14-0.2,0.14-0.35c0-0.15-0.04-0.27-0.13-0.35c-0.08-0.09-0.22-0.13-0.39-0.13h-0.53
			V27.01z"/>
	</g>
	<g>
		<path class="st2" d="M686.36,27.4h-1.26v1.3h-0.65v-3.19h2.07v0.53h-1.41v0.82h1.26V27.4z"/>
	</g>
	<g>
		<path class="st2" d="M700.16,27.9c0-0.12-0.04-0.22-0.13-0.29c-0.09-0.07-0.24-0.14-0.47-0.21c-0.23-0.07-0.41-0.15-0.54-0.22
			c-0.36-0.2-0.54-0.46-0.54-0.79c0-0.17,0.05-0.33,0.15-0.46s0.24-0.24,0.42-0.32c0.18-0.08,0.38-0.11,0.61-0.11
			c0.23,0,0.43,0.04,0.61,0.12c0.18,0.08,0.32,0.2,0.41,0.35c0.1,0.15,0.15,0.32,0.15,0.51h-0.65c0-0.15-0.05-0.26-0.14-0.34
			c-0.09-0.08-0.22-0.12-0.39-0.12c-0.16,0-0.28,0.03-0.37,0.1c-0.09,0.07-0.13,0.16-0.13,0.27c0,0.1,0.05,0.19,0.16,0.26
			s0.26,0.14,0.46,0.2c0.37,0.11,0.64,0.25,0.81,0.42c0.17,0.17,0.26,0.37,0.26,0.62c0,0.28-0.1,0.49-0.31,0.65
			s-0.49,0.23-0.84,0.23c-0.24,0-0.47-0.04-0.67-0.13c-0.2-0.09-0.35-0.21-0.46-0.37c-0.11-0.16-0.16-0.34-0.16-0.54h0.66
			c0,0.35,0.21,0.53,0.63,0.53c0.16,0,0.28-0.03,0.36-0.1C700.12,28.1,700.16,28.02,700.16,27.9z"/>
	</g>
	<g>
		<path class="st2" d="M715.98,27.87c0-0.12-0.04-0.22-0.13-0.29c-0.09-0.07-0.24-0.14-0.47-0.21c-0.23-0.07-0.41-0.15-0.54-0.22
			c-0.36-0.2-0.54-0.46-0.54-0.79c0-0.17,0.05-0.33,0.15-0.46c0.1-0.13,0.24-0.24,0.42-0.32c0.18-0.08,0.38-0.11,0.61-0.11
			c0.23,0,0.43,0.04,0.61,0.12c0.18,0.08,0.32,0.2,0.41,0.35c0.1,0.15,0.15,0.32,0.15,0.51h-0.65c0-0.15-0.05-0.26-0.14-0.34
			c-0.09-0.08-0.22-0.12-0.39-0.12c-0.16,0-0.28,0.03-0.37,0.1c-0.09,0.07-0.13,0.16-0.13,0.27c0,0.1,0.05,0.19,0.16,0.26
			s0.26,0.14,0.46,0.2c0.37,0.11,0.64,0.25,0.81,0.42c0.17,0.17,0.26,0.37,0.26,0.62c0,0.28-0.1,0.49-0.31,0.65
			c-0.21,0.16-0.49,0.23-0.84,0.23c-0.24,0-0.47-0.04-0.67-0.13c-0.2-0.09-0.35-0.21-0.46-0.37c-0.11-0.16-0.16-0.34-0.16-0.54h0.66
			c0,0.35,0.21,0.53,0.63,0.53c0.16,0,0.28-0.03,0.36-0.1C715.94,28.07,715.98,27.98,715.98,27.87z"/>
	</g>
	<g>
		<path class="st2" d="M728.32,25.52l0.82,2.31l0.81-2.31h0.86v3.19h-0.66v-0.87l0.06-1.5l-0.86,2.37h-0.45l-0.86-2.37l0.07,1.5
			v0.87h-0.65v-3.19H728.32z"/>
	</g>
	<g>
		<path class="st2" d="M744.48,26.05h-0.97v2.65h-0.65v-2.65h-0.96v-0.53h2.59V26.05z"/>
	</g>
	<g>
		<path class="st2" d="M757.69,27.79l0.43-2.27h0.65l-0.71,3.19h-0.66l-0.52-2.13l-0.52,2.13h-0.66l-0.7-3.19h0.65l0.43,2.26
			l0.52-2.26h0.55L757.69,27.79z"/>
	</g>
	<g>
		<path class="st2" d="M770.64,27.54h-0.52v1.17h-0.65v-3.19h1.18c0.38,0,0.66,0.08,0.87,0.25c0.2,0.17,0.31,0.4,0.31,0.71
			c0,0.22-0.05,0.4-0.14,0.54c-0.09,0.14-0.24,0.26-0.43,0.35l0.69,1.3v0.03h-0.7L770.64,27.54z M770.12,27.01h0.53
			c0.16,0,0.29-0.04,0.38-0.13c0.09-0.08,0.14-0.2,0.14-0.35c0-0.15-0.04-0.27-0.13-0.35c-0.08-0.09-0.22-0.13-0.39-0.13h-0.53
			V27.01z"/>
	</g>
	<g>
		<path class="st2" d="M785.25,27.4H784v1.3h-0.65v-3.19h2.07v0.53H784v0.82h1.26V27.4z"/>
	</g>
	<g>
		<path class="st2" d="M799.06,27.9c0-0.12-0.04-0.22-0.13-0.29c-0.09-0.07-0.24-0.14-0.47-0.21c-0.23-0.07-0.41-0.15-0.54-0.22
			c-0.36-0.2-0.54-0.46-0.54-0.79c0-0.17,0.05-0.33,0.15-0.46c0.1-0.13,0.24-0.24,0.42-0.32c0.18-0.08,0.38-0.11,0.61-0.11
			c0.23,0,0.43,0.04,0.61,0.12c0.18,0.08,0.32,0.2,0.41,0.35c0.1,0.15,0.15,0.32,0.15,0.51h-0.65c0-0.15-0.05-0.26-0.14-0.34
			c-0.09-0.08-0.22-0.12-0.39-0.12c-0.16,0-0.28,0.03-0.37,0.1c-0.09,0.07-0.13,0.16-0.13,0.27c0,0.1,0.05,0.19,0.16,0.26
			c0.1,0.07,0.26,0.14,0.46,0.2c0.37,0.11,0.64,0.25,0.81,0.42c0.17,0.17,0.26,0.37,0.26,0.62c0,0.28-0.1,0.49-0.31,0.65
			c-0.21,0.16-0.49,0.23-0.84,0.23c-0.24,0-0.47-0.04-0.67-0.13c-0.2-0.09-0.35-0.21-0.46-0.37c-0.11-0.16-0.16-0.34-0.16-0.54h0.66
			c0,0.35,0.21,0.53,0.63,0.53c0.16,0,0.28-0.03,0.36-0.1C799.02,28.1,799.06,28.02,799.06,27.9z"/>
	</g>
	<g>
		<path class="st2" d="M814.88,27.87c0-0.12-0.04-0.22-0.13-0.29c-0.09-0.07-0.24-0.14-0.47-0.21c-0.23-0.07-0.41-0.15-0.54-0.22
			c-0.36-0.2-0.54-0.46-0.54-0.79c0-0.17,0.05-0.33,0.15-0.46c0.1-0.13,0.24-0.24,0.42-0.32c0.18-0.08,0.38-0.11,0.61-0.11
			c0.23,0,0.43,0.04,0.61,0.12c0.18,0.08,0.32,0.2,0.41,0.35c0.1,0.15,0.15,0.32,0.15,0.51h-0.65c0-0.15-0.05-0.26-0.14-0.34
			c-0.09-0.08-0.22-0.12-0.39-0.12c-0.16,0-0.28,0.03-0.37,0.1c-0.09,0.07-0.13,0.16-0.13,0.27c0,0.1,0.05,0.19,0.16,0.26
			s0.26,0.14,0.46,0.2c0.37,0.11,0.64,0.25,0.81,0.42c0.17,0.17,0.26,0.37,0.26,0.62c0,0.28-0.1,0.49-0.31,0.65
			c-0.21,0.16-0.49,0.23-0.84,0.23c-0.24,0-0.47-0.04-0.67-0.13c-0.2-0.09-0.35-0.21-0.46-0.37c-0.11-0.16-0.16-0.34-0.16-0.54h0.66
			c0,0.35,0.21,0.53,0.63,0.53c0.16,0,0.28-0.03,0.36-0.1C814.84,28.07,814.88,27.98,814.88,27.87z"/>
	</g>
	<g>
		<path class="st2" d="M827.22,25.52l0.82,2.31l0.81-2.31h0.86v3.19h-0.66v-0.87l0.06-1.5l-0.86,2.37h-0.45l-0.86-2.37l0.07,1.5
			v0.87h-0.65v-3.19H827.22z"/>
	</g>
	<g>
		<path class="st2" d="M843.38,26.05h-0.97v2.65h-0.65v-2.65h-0.96v-0.53h2.59V26.05z"/>
	</g>
	<g>
		<path class="st2" d="M856.59,27.79l0.43-2.27h0.65l-0.71,3.19h-0.66l-0.52-2.13l-0.52,2.13h-0.66l-0.7-3.19h0.65l0.43,2.26
			l0.52-2.26h0.55L856.59,27.79z"/>
	</g>
	<g>
		<path class="st2" d="M869.54,27.54h-0.52v1.17h-0.65v-3.19h1.18c0.38,0,0.66,0.08,0.87,0.25c0.2,0.17,0.31,0.4,0.31,0.71
			c0,0.22-0.05,0.4-0.14,0.54c-0.09,0.14-0.24,0.26-0.43,0.35l0.69,1.3v0.03h-0.7L869.54,27.54z M869.02,27.01h0.53
			c0.16,0,0.29-0.04,0.38-0.13c0.09-0.08,0.14-0.2,0.14-0.35c0-0.15-0.04-0.27-0.13-0.35c-0.08-0.09-0.22-0.13-0.39-0.13h-0.53
			V27.01z"/>
	</g>
	<g>
		<path class="st2" d="M884.15,27.4h-1.26v1.3h-0.65v-3.19h2.07v0.53h-1.41v0.82h1.26V27.4z"/>
	</g>
	<g>
		<path class="st2" d="M897.96,27.9c0-0.12-0.04-0.22-0.13-0.29c-0.09-0.07-0.24-0.14-0.47-0.21c-0.23-0.07-0.41-0.15-0.54-0.22
			c-0.36-0.2-0.54-0.46-0.54-0.79c0-0.17,0.05-0.33,0.15-0.46s0.24-0.24,0.42-0.32c0.18-0.08,0.38-0.11,0.61-0.11
			c0.23,0,0.43,0.04,0.61,0.12c0.18,0.08,0.32,0.2,0.41,0.35c0.1,0.15,0.15,0.32,0.15,0.51h-0.65c0-0.15-0.05-0.26-0.14-0.34
			c-0.09-0.08-0.22-0.12-0.39-0.12c-0.16,0-0.28,0.03-0.37,0.1c-0.09,0.07-0.13,0.16-0.13,0.27c0,0.1,0.05,0.19,0.16,0.26
			s0.26,0.14,0.46,0.2c0.37,0.11,0.64,0.25,0.81,0.42c0.17,0.17,0.26,0.37,0.26,0.62c0,0.28-0.1,0.49-0.31,0.65
			c-0.21,0.16-0.49,0.23-0.84,0.23c-0.24,0-0.47-0.04-0.67-0.13c-0.2-0.09-0.35-0.21-0.46-0.37c-0.11-0.16-0.16-0.34-0.16-0.54h0.66
			c0,0.35,0.21,0.53,0.63,0.53c0.16,0,0.28-0.03,0.36-0.1C897.92,28.1,897.96,28.02,897.96,27.9z"/>
	</g>
	<g>
		<path class="st2" d="M913.78,27.87c0-0.12-0.04-0.22-0.13-0.29c-0.09-0.07-0.24-0.14-0.47-0.21c-0.23-0.07-0.41-0.15-0.54-0.22
			c-0.36-0.2-0.54-0.46-0.54-0.79c0-0.17,0.05-0.33,0.15-0.46c0.1-0.13,0.24-0.24,0.42-0.32c0.18-0.08,0.38-0.11,0.61-0.11
			c0.23,0,0.43,0.04,0.61,0.12c0.18,0.08,0.32,0.2,0.41,0.35c0.1,0.15,0.15,0.32,0.15,0.51h-0.65c0-0.15-0.05-0.26-0.14-0.34
			c-0.09-0.08-0.22-0.12-0.39-0.12c-0.16,0-0.28,0.03-0.37,0.1c-0.09,0.07-0.13,0.16-0.13,0.27c0,0.1,0.05,0.19,0.16,0.26
			c0.1,0.07,0.26,0.14,0.46,0.2c0.37,0.11,0.64,0.25,0.81,0.42c0.17,0.17,0.26,0.37,0.26,0.62c0,0.28-0.1,0.49-0.31,0.65
			c-0.21,0.16-0.49,0.23-0.84,0.23c-0.24,0-0.47-0.04-0.67-0.13c-0.2-0.09-0.35-0.21-0.46-0.37c-0.11-0.16-0.16-0.34-0.16-0.54h0.66
			c0,0.35,0.21,0.53,0.63,0.53c0.16,0,0.28-0.03,0.36-0.1C913.74,28.07,913.78,27.98,913.78,27.87z"/>
	</g>
	<g>
		<path class="st2" d="M926.12,25.52l0.82,2.31l0.81-2.31h0.86v3.19h-0.66v-0.87l0.06-1.5l-0.86,2.37h-0.45l-0.86-2.37l0.07,1.5
			v0.87h-0.65v-3.19H926.12z"/>
	</g>
	<g>
		<path class="st2" d="M942.28,26.05h-0.97v2.65h-0.65v-2.65h-0.96v-0.53h2.59V26.05z"/>
	</g>
	<g>
		<path class="st2" d="M955.49,27.79l0.43-2.27h0.65l-0.71,3.19h-0.66l-0.52-2.13l-0.52,2.13h-0.66l-0.7-3.19h0.65l0.43,2.26
			l0.52-2.26h0.55L955.49,27.79z"/>
	</g>
	<g>
		<path class="st2" d="M968.44,27.54h-0.52v1.17h-0.65v-3.19h1.18c0.38,0,0.66,0.08,0.87,0.25c0.2,0.17,0.31,0.4,0.31,0.71
			c0,0.22-0.05,0.4-0.14,0.54c-0.09,0.14-0.24,0.26-0.43,0.35l0.69,1.3v0.03h-0.7L968.44,27.54z M967.92,27.01h0.53
			c0.16,0,0.29-0.04,0.38-0.13c0.09-0.08,0.14-0.2,0.14-0.35c0-0.15-0.04-0.27-0.13-0.35c-0.08-0.09-0.22-0.13-0.39-0.13h-0.53
			V27.01z"/>
	</g>
	<g>
		<path class="st2" d="M983.05,27.4h-1.26v1.3h-0.65v-3.19h2.07v0.53h-1.41v0.82h1.26V27.4z"/>
	</g>
	<g>
		<path class="st2" d="M996.86,27.9c0-0.12-0.04-0.22-0.13-0.29c-0.09-0.07-0.24-0.14-0.47-0.21c-0.23-0.07-0.41-0.15-0.54-0.22
			c-0.36-0.2-0.54-0.46-0.54-0.79c0-0.17,0.05-0.33,0.15-0.46c0.1-0.13,0.24-0.24,0.42-0.32c0.18-0.08,0.38-0.11,0.61-0.11
			c0.23,0,0.43,0.04,0.61,0.12c0.18,0.08,0.32,0.2,0.41,0.35c0.1,0.15,0.15,0.32,0.15,0.51h-0.65c0-0.15-0.05-0.26-0.14-0.34
			c-0.09-0.08-0.22-0.12-0.39-0.12c-0.16,0-0.28,0.03-0.37,0.1c-0.09,0.07-0.13,0.16-0.13,0.27c0,0.1,0.05,0.19,0.16,0.26
			c0.1,0.07,0.26,0.14,0.46,0.2c0.37,0.11,0.64,0.25,0.81,0.42c0.17,0.17,0.26,0.37,0.26,0.62c0,0.28-0.1,0.49-0.31,0.65
			c-0.21,0.16-0.49,0.23-0.84,0.23c-0.24,0-0.47-0.04-0.67-0.13c-0.2-0.09-0.35-0.21-0.46-0.37c-0.11-0.16-0.16-0.34-0.16-0.54h0.66
			c0,0.35,0.21,0.53,0.63,0.53c0.16,0,0.28-0.03,0.36-0.1C996.81,28.1,996.86,28.02,996.86,27.9z"/>
	</g>
	<g>
		<path class="st2" d="M1012.68,27.87c0-0.12-0.04-0.22-0.13-0.29c-0.09-0.07-0.24-0.14-0.47-0.21c-0.23-0.07-0.41-0.15-0.54-0.22
			c-0.36-0.2-0.54-0.46-0.54-0.79c0-0.17,0.05-0.33,0.15-0.46c0.1-0.13,0.24-0.24,0.42-0.32c0.18-0.08,0.38-0.11,0.61-0.11
			c0.23,0,0.43,0.04,0.61,0.12c0.18,0.08,0.32,0.2,0.41,0.35c0.1,0.15,0.15,0.32,0.15,0.51h-0.65c0-0.15-0.05-0.26-0.14-0.34
			c-0.09-0.08-0.22-0.12-0.39-0.12c-0.16,0-0.28,0.03-0.37,0.1c-0.09,0.07-0.13,0.16-0.13,0.27c0,0.1,0.05,0.19,0.16,0.26
			s0.26,0.14,0.46,0.2c0.37,0.11,0.64,0.25,0.81,0.42c0.17,0.17,0.26,0.37,0.26,0.62c0,0.28-0.1,0.49-0.31,0.65
			c-0.21,0.16-0.49,0.23-0.84,0.23c-0.24,0-0.47-0.04-0.67-0.13c-0.2-0.09-0.35-0.21-0.46-0.37c-0.11-0.16-0.16-0.34-0.16-0.54h0.66
			c0,0.35,0.21,0.53,0.63,0.53c0.16,0,0.28-0.03,0.36-0.1C1012.63,28.07,1012.68,27.98,1012.68,27.87z"/>
	</g>
	<g>
		<path class="st2" d="M1025.02,25.52l0.82,2.31l0.81-2.31h0.86v3.19h-0.66v-0.87l0.06-1.5l-0.86,2.37h-0.45l-0.86-2.37l0.07,1.5
			v0.87h-0.65v-3.19H1025.02z"/>
	</g>
	<g>
		<path class="st2" d="M1041.17,26.05h-0.97v2.65h-0.65v-2.65h-0.96v-0.53h2.59V26.05z"/>
	</g>
	<g>
		<path class="st2" d="M1054.39,27.79l0.43-2.27h0.65l-0.71,3.19h-0.66l-0.52-2.13l-0.52,2.13h-0.66l-0.7-3.19h0.65l0.43,2.26
			l0.52-2.26h0.55L1054.39,27.79z"/>
	</g>
	<g>
		<path class="st2" d="M1067.34,27.54h-0.52v1.17h-0.65v-3.19h1.18c0.38,0,0.66,0.08,0.87,0.25c0.2,0.17,0.31,0.4,0.31,0.71
			c0,0.22-0.05,0.4-0.14,0.54c-0.09,0.14-0.24,0.26-0.43,0.35l0.69,1.3v0.03h-0.7L1067.34,27.54z M1066.82,27.01h0.53
			c0.16,0,0.29-0.04,0.38-0.13c0.09-0.08,0.14-0.2,0.14-0.35c0-0.15-0.04-0.27-0.13-0.35c-0.08-0.09-0.22-0.13-0.39-0.13h-0.53
			V27.01z"/>
	</g>
	<g>
		<path class="st2" d="M1081.95,27.4h-1.26v1.3h-0.65v-3.19h2.07v0.53h-1.41v0.82h1.26V27.4z"/>
	</g>
	<g>
		<path class="st2" d="M1095.75,27.9c0-0.12-0.04-0.22-0.13-0.29c-0.09-0.07-0.24-0.14-0.47-0.21c-0.23-0.07-0.41-0.15-0.54-0.22
			c-0.36-0.2-0.54-0.46-0.54-0.79c0-0.17,0.05-0.33,0.15-0.46c0.1-0.13,0.24-0.24,0.42-0.32c0.18-0.08,0.38-0.11,0.61-0.11
			c0.23,0,0.43,0.04,0.61,0.12c0.18,0.08,0.32,0.2,0.41,0.35c0.1,0.15,0.15,0.32,0.15,0.51h-0.65c0-0.15-0.05-0.26-0.14-0.34
			c-0.09-0.08-0.22-0.12-0.39-0.12c-0.16,0-0.28,0.03-0.37,0.1c-0.09,0.07-0.13,0.16-0.13,0.27c0,0.1,0.05,0.19,0.16,0.26
			s0.26,0.14,0.46,0.2c0.37,0.11,0.64,0.25,0.81,0.42c0.17,0.17,0.26,0.37,0.26,0.62c0,0.28-0.1,0.49-0.31,0.65
			c-0.21,0.16-0.49,0.23-0.84,0.23c-0.24,0-0.47-0.04-0.67-0.13c-0.2-0.09-0.35-0.21-0.46-0.37c-0.11-0.16-0.16-0.34-0.16-0.54h0.66
			c0,0.35,0.21,0.53,0.63,0.53c0.16,0,0.28-0.03,0.36-0.1C1095.71,28.1,1095.75,28.02,1095.75,27.9z"/>
	</g>
	<g>
		<path class="st2" d="M1111.58,27.87c0-0.12-0.04-0.22-0.13-0.29c-0.09-0.07-0.24-0.14-0.47-0.21c-0.23-0.07-0.41-0.15-0.54-0.22
			c-0.36-0.2-0.54-0.46-0.54-0.79c0-0.17,0.05-0.33,0.15-0.46c0.1-0.13,0.24-0.24,0.42-0.32c0.18-0.08,0.38-0.11,0.61-0.11
			c0.23,0,0.43,0.04,0.61,0.12c0.18,0.08,0.32,0.2,0.41,0.35c0.1,0.15,0.15,0.32,0.15,0.51h-0.65c0-0.15-0.05-0.26-0.14-0.34
			c-0.09-0.08-0.22-0.12-0.39-0.12c-0.16,0-0.28,0.03-0.37,0.1c-0.09,0.07-0.13,0.16-0.13,0.27c0,0.1,0.05,0.19,0.16,0.26
			c0.1,0.07,0.26,0.14,0.46,0.2c0.37,0.11,0.64,0.25,0.81,0.42c0.17,0.17,0.26,0.37,0.26,0.62c0,0.28-0.1,0.49-0.31,0.65
			c-0.21,0.16-0.49,0.23-0.84,0.23c-0.24,0-0.47-0.04-0.67-0.13c-0.2-0.09-0.35-0.21-0.46-0.37c-0.11-0.16-0.16-0.34-0.16-0.54h0.66
			c0,0.35,0.21,0.53,0.63,0.53c0.16,0,0.28-0.03,0.36-0.1C1111.53,28.07,1111.58,27.98,1111.58,27.87z"/>
	</g>
	<g>
		<path class="st2" d="M1123.92,25.52l0.82,2.31l0.81-2.31h0.86v3.19h-0.66v-0.87l0.06-1.5l-0.86,2.37h-0.45l-0.86-2.37l0.07,1.5
			v0.87h-0.65v-3.19H1123.92z"/>
	</g>
	<g>
		<path class="st2" d="M1140.07,26.05h-0.97v2.65h-0.65v-2.65h-0.96v-0.53h2.59V26.05z"/>
	</g>
	<g>
		<path class="st2" d="M1153.29,27.79l0.43-2.27h0.65l-0.71,3.19H1153l-0.52-2.13l-0.52,2.13h-0.66l-0.7-3.19h0.65l0.43,2.26
			l0.52-2.26h0.55L1153.29,27.79z"/>
	</g>
	<g>
		<path class="st2" d="M1166.24,27.54h-0.52v1.17h-0.65v-3.19h1.18c0.38,0,0.66,0.08,0.87,0.25c0.2,0.17,0.31,0.4,0.31,0.71
			c0,0.22-0.05,0.4-0.14,0.54c-0.09,0.14-0.24,0.26-0.43,0.35l0.69,1.3v0.03h-0.7L1166.24,27.54z M1165.72,27.01h0.53
			c0.16,0,0.29-0.04,0.38-0.13c0.09-0.08,0.14-0.2,0.14-0.35c0-0.15-0.04-0.27-0.13-0.35c-0.08-0.09-0.22-0.13-0.39-0.13h-0.53
			V27.01z"/>
	</g>
	<g>
		<path class="st2" d="M1180.85,27.4h-1.26v1.3h-0.65v-3.19h2.07v0.53h-1.41v0.82h1.26V27.4z"/>
	</g>
	<g>
		<path class="st2" d="M1194.65,27.9c0-0.12-0.04-0.22-0.13-0.29c-0.09-0.07-0.24-0.14-0.47-0.21c-0.23-0.07-0.41-0.15-0.54-0.22
			c-0.36-0.2-0.54-0.46-0.54-0.79c0-0.17,0.05-0.33,0.15-0.46c0.1-0.13,0.24-0.24,0.42-0.32c0.18-0.08,0.38-0.11,0.61-0.11
			c0.23,0,0.43,0.04,0.61,0.12c0.18,0.08,0.32,0.2,0.41,0.35c0.1,0.15,0.15,0.32,0.15,0.51h-0.65c0-0.15-0.05-0.26-0.14-0.34
			c-0.09-0.08-0.22-0.12-0.39-0.12c-0.16,0-0.28,0.03-0.37,0.1c-0.09,0.07-0.13,0.16-0.13,0.27c0,0.1,0.05,0.19,0.16,0.26
			c0.1,0.07,0.26,0.14,0.46,0.2c0.37,0.11,0.64,0.25,0.81,0.42c0.17,0.17,0.26,0.37,0.26,0.62c0,0.28-0.1,0.49-0.31,0.65
			c-0.21,0.16-0.49,0.23-0.84,0.23c-0.24,0-0.47-0.04-0.67-0.13c-0.2-0.09-0.35-0.21-0.46-0.37c-0.11-0.16-0.16-0.34-0.16-0.54h0.66
			c0,0.35,0.21,0.53,0.63,0.53c0.16,0,0.28-0.03,0.36-0.1C1194.61,28.1,1194.65,28.02,1194.65,27.9z"/>
	</g>
	<g>
		<path class="st2" d="M1201.18,22.65h-4.52v-0.9l2.13-2.28c0.29-0.32,0.51-0.6,0.65-0.84c0.14-0.24,0.21-0.47,0.21-0.68
			c0-0.29-0.07-0.52-0.22-0.69c-0.15-0.17-0.36-0.25-0.63-0.25c-0.3,0-0.53,0.1-0.7,0.31c-0.17,0.21-0.26,0.47-0.26,0.81h-1.31
			c0-0.4,0.1-0.77,0.29-1.1c0.19-0.33,0.46-0.59,0.81-0.78c0.35-0.19,0.75-0.28,1.19-0.28c0.68,0,1.21,0.16,1.58,0.49
			c0.38,0.33,0.56,0.79,0.56,1.39c0,0.33-0.08,0.66-0.25,1c-0.17,0.34-0.46,0.73-0.87,1.19l-1.5,1.59h2.84V22.65z"/>
		<path class="st2" d="M1205.05,20c-0.34,0.34-0.74,0.5-1.2,0.5c-0.58,0-1.05-0.2-1.4-0.6c-0.35-0.4-0.53-0.94-0.53-1.62
			c0-0.43,0.09-0.83,0.28-1.19c0.19-0.36,0.45-0.64,0.79-0.85c0.34-0.2,0.72-0.3,1.14-0.3c0.43,0,0.82,0.11,1.16,0.33
			c0.34,0.22,0.6,0.53,0.79,0.94c0.19,0.41,0.28,0.88,0.28,1.4v0.49c0,1.1-0.27,1.97-0.82,2.6c-0.55,0.63-1.32,0.97-2.32,1.01
			l-0.32,0v-1.1l0.29,0C1204.34,21.56,1204.96,21.02,1205.05,20z M1204.18,19.5c0.21,0,0.39-0.05,0.55-0.16
			c0.15-0.11,0.27-0.24,0.35-0.4V18.4c0-0.45-0.08-0.79-0.25-1.04c-0.17-0.25-0.4-0.37-0.68-0.37c-0.26,0-0.48,0.12-0.65,0.36
			c-0.17,0.24-0.25,0.54-0.25,0.91c0,0.36,0.08,0.66,0.25,0.89C1203.64,19.38,1203.88,19.5,1204.18,19.5z"/>
	</g>
	<g>
		<path class="st2" d="M1210.48,27.87c0-0.12-0.04-0.22-0.13-0.29c-0.09-0.07-0.24-0.14-0.47-0.21c-0.23-0.07-0.41-0.15-0.54-0.22
			c-0.36-0.2-0.54-0.46-0.54-0.79c0-0.17,0.05-0.33,0.15-0.46c0.1-0.13,0.24-0.24,0.42-0.32c0.18-0.08,0.38-0.11,0.61-0.11
			c0.23,0,0.43,0.04,0.61,0.12c0.18,0.08,0.32,0.2,0.41,0.35c0.1,0.15,0.15,0.32,0.15,0.51h-0.65c0-0.15-0.05-0.26-0.14-0.34
			c-0.09-0.08-0.22-0.12-0.39-0.12c-0.16,0-0.28,0.03-0.37,0.1c-0.09,0.07-0.13,0.16-0.13,0.27c0,0.1,0.05,0.19,0.16,0.26
			c0.1,0.07,0.26,0.14,0.46,0.2c0.37,0.11,0.64,0.25,0.81,0.42c0.17,0.17,0.26,0.37,0.26,0.62c0,0.28-0.1,0.49-0.31,0.65
			c-0.21,0.16-0.49,0.23-0.84,0.23c-0.24,0-0.47-0.04-0.67-0.13c-0.2-0.09-0.35-0.21-0.46-0.37c-0.11-0.16-0.16-0.34-0.16-0.54h0.66
			c0,0.35,0.21,0.53,0.63,0.53c0.16,0,0.28-0.03,0.36-0.1C1210.43,28.07,1210.48,27.98,1210.48,27.87z"/>
	</g>
	<g>
		<path class="st2" d="M1222.82,25.52l0.82,2.31l0.81-2.31h0.86v3.19h-0.66v-0.87l0.06-1.5l-0.86,2.37h-0.45l-0.86-2.37l0.07,1.5
			v0.87h-0.65v-3.19H1222.82z"/>
	</g>
	<g>
		<path class="st2" d="M1238.97,26.05H1238v2.65h-0.65v-2.65h-0.96v-0.53h2.59V26.05z"/>
	</g>
	<g>
		<path class="st2" d="M1252.19,27.79l0.43-2.27h0.65l-0.71,3.19h-0.66l-0.52-2.13l-0.52,2.13h-0.66l-0.7-3.19h0.65l0.43,2.26
			l0.52-2.26h0.55L1252.19,27.79z"/>
	</g>
	<g>
		<path class="st2" d="M1265.14,27.54h-0.52v1.17h-0.65v-3.19h1.18c0.38,0,0.66,0.08,0.87,0.25c0.2,0.17,0.31,0.4,0.31,0.71
			c0,0.22-0.05,0.4-0.14,0.54c-0.09,0.14-0.24,0.26-0.43,0.35l0.69,1.3v0.03h-0.7L1265.14,27.54z M1264.62,27.01h0.53
			c0.16,0,0.29-0.04,0.38-0.13c0.09-0.08,0.14-0.2,0.14-0.35c0-0.15-0.04-0.27-0.13-0.35c-0.08-0.09-0.22-0.13-0.39-0.13h-0.53
			V27.01z"/>
	</g>
	<g>
		<path class="st2" d="M1279.75,27.4h-1.26v1.3h-0.65v-3.19h2.07v0.53h-1.41v0.82h1.26V27.4z"/>
	</g>
	<g>
		<path class="st2" d="M1293.55,27.9c0-0.12-0.04-0.22-0.13-0.29c-0.09-0.07-0.24-0.14-0.47-0.21c-0.23-0.07-0.41-0.15-0.54-0.22
			c-0.36-0.2-0.54-0.46-0.54-0.79c0-0.17,0.05-0.33,0.15-0.46c0.1-0.13,0.24-0.24,0.42-0.32c0.18-0.08,0.38-0.11,0.61-0.11
			c0.23,0,0.43,0.04,0.61,0.12c0.18,0.08,0.32,0.2,0.41,0.35c0.1,0.15,0.15,0.32,0.15,0.51h-0.65c0-0.15-0.05-0.26-0.14-0.34
			c-0.09-0.08-0.22-0.12-0.39-0.12c-0.16,0-0.28,0.03-0.37,0.1c-0.09,0.07-0.13,0.16-0.13,0.27c0,0.1,0.05,0.19,0.16,0.26
			c0.1,0.07,0.26,0.14,0.46,0.2c0.37,0.11,0.64,0.25,0.81,0.42c0.17,0.17,0.26,0.37,0.26,0.62c0,0.28-0.1,0.49-0.31,0.65
			c-0.21,0.16-0.49,0.23-0.84,0.23c-0.24,0-0.47-0.04-0.67-0.13c-0.2-0.09-0.35-0.21-0.46-0.37c-0.11-0.16-0.16-0.34-0.16-0.54h0.66
			c0,0.35,0.21,0.53,0.63,0.53c0.16,0,0.28-0.03,0.36-0.1C1293.51,28.1,1293.55,28.02,1293.55,27.9z"/>
	</g>
</g>
</svg>
